SplineFontDB: 3.0
FontName: DOF-1-Italic
FullName: DOF-1 Regular
FamilyName: DOF-1
Weight: Italic
Copyright: The DOF-1 typeface was created by Paul Bernhard with Donald E. Knuth's typographic system METAFONT. METAFONT's bitmap ouput was converted to outlines via mftrace.
Version: 1.1
ItalicAngle: -14
UnderlinePosition: -91
UnderlineWidth: 45
Ascent: 819
Descent: 205
InvalidEm: 0
LayerCount: 2
Layer: 0 0 "Back" 1
Layer: 1 0 "Fore" 0
StyleMap: 0x0000
FSType: 0
OS2Version: 0
OS2_WeightWidthSlopeOnly: 0
OS2_UseTypoMetrics: 0
CreationTime: 1493717580
ModificationTime: 1493887225
OS2TypoAscent: 0
OS2TypoAOffset: 1
OS2TypoDescent: 0
OS2TypoDOffset: 1
OS2TypoLinegap: 92
OS2WinAscent: 0
OS2WinAOffset: 1
OS2WinDescent: 0
OS2WinDOffset: 1
HheadAscent: 0
HheadAOffset: 1
HheadDescent: 0
HheadDOffset: 1
MarkAttachClasses: 1
DEI: 91125
Encoding: ISO8859-1
UnicodeInterp: none
NameList: AGL For New Fonts
DisplaySize: -48
AntiAlias: 1
FitToEm: 0
WinInfo: 13 13 10
BeginPrivate: 3
lenIV 1 4
BlueValues 2 []
ForceBold 5 false
EndPrivate
BeginChars: 260 102

StartChar: exclam
Encoding: 33 33 1
Width: 303
VWidth: 910
Flags: HW
LayerCount: 2
Fore
SplineSet
335 818 m 0
 355 821 379 818 392 811 c 0
 397 809 402 804 402 801 c 0
 402 800 368 660 325 489 c 2
 247 178 l 1
 243 175 l 2
 236 168 219 164 198 164 c 0
 176 164 158 168 150 176 c 0
 148 178 147 180 147 181 c 0
 147 182 181 322 224 493 c 0
 300 797 302 803 305 807 c 0
 310 812 321 816 335 818 c 0
140 36 m 0
 149 37 173 37 182 35 c 0
 215 28 215 10 182 3 c 0
 169 0 143 0 130 3 c 0
 115 7 106 12 106 18 c 0
 106 26 118 33 140 36 c 0
EndSplineSet
Validated: 33
EndChar

StartChar: quotedbl
Encoding: 34 34 2
Width: 303
VWidth: 910
Flags: HW
LayerCount: 2
Fore
SplineSet
263 818 m 0
 293 823 331 814 331 801 c 0
 331 798 301 679 300 675 c 0
 297 670 286 665 270 662 c 0
 258 660 234 661 224 664 c 0
 209 668 200 673 200 679 c 0
 200 680 208 709 216 743 c 0
 230 799 231 803 234 806 c 0
 239 811 248 815 263 818 c 0
407 818 m 0
 415 819 432 819 441 818 c 0
 459 815 468 811 472 804 c 0
 473 801 473 796 458 738 c 0
 445 687 442 676 440 674 c 0
 437 670 429 666 420 664 c 0
 409 661 384 660 372 662 c 0
 356 665 346 670 342 675 c 0
 341 678 342 679 357 741 c 0
 370 792 373 804 375 806 c 0
 379 811 392 816 407 818 c 0
EndSplineSet
Validated: 33
EndChar

StartChar: numbersign
Encoding: 35 35 3
Width: 607
VWidth: 910
Flags: HW
LayerCount: 2
Fore
SplineSet
404 613 m 0
 435 618 472 609 472 596 c 0
 472 594 458 567 428 512 c 0
 404 467 384 431 383 430 c 0
 383 429 395 429 447 429 c 2
 511 430 l 1
 557 514 l 2
 582 560 604 601 606 602 c 0
 619 616 668 619 693 607 c 0
 699 604 704 600 704 596 c 0
 704 594 687 565 659 512 c 2
 613 430 l 1
 630 429 l 2
 648 428 659 426 668 421 c 0
 687 412 680 399 654 394 c 0
 647 392 642 392 620 391 c 2
 593 391 l 1
 547 308 l 1
 502 224 l 1
 518 223 l 2
 538 222 551 219 560 214 c 0
 571 208 570 199 557 193 c 0
 544 188 533 186 503 186 c 2
 482 186 l 1
 435 100 l 2
 410 54 387 14 386 13 c 0
 380 5 356 -1 333 0 c 0
 307 2 289 9 289 18 c 0
 289 21 301 45 333 103 c 0
 358 148 378 185 378 185 c 2
 378 186 349 186 314 186 c 2
 250 186 l 1
 204 100 l 2
 178 53 156 14 155 12 c 0
 150 7 141 4 126 1 c 0
 94 -4 57 5 57 18 c 0
 57 20 71 47 102 103 c 0
 127 148 147 185 147 185 c 2
 147 186 141 186 135 186 c 0
 111 186 92 190 85 198 c 0
 78 205 84 213 100 218 c 0
 111 222 116 222 141 223 c 2
 167 224 l 1
 213 307 l 2
 238 353 259 390 259 390 c 1
 259 390 251 391 242 391 c 0
 216 392 201 397 195 406 c 0
 192 410 192 410 195 414 c 0
 199 419 206 423 220 427 c 0
 225 428 233 428 253 429 c 2
 279 430 l 1
 326 514 l 2
 352 561 374 601 375 603 c 0
 380 608 389 610 404 613 c 0
490 391 m 2
 426 391 l 1
 362 391 l 1
 360 386 l 2
 358 382 337 345 313 301 c 2
 270 223 l 1
 334 223 l 1
 399 223 l 1
 444 307 l 2
 469 353 490 390 490 391 c 2
EndSplineSet
Validated: 33
EndChar

StartChar: dollar
Encoding: 36 36 4
Width: 546
VWidth: 910
Flags: HW
LayerCount: 2
Fore
SplineSet
455 818 m 0
 465 820 489 819 499 816 c 0
 514 812 523 807 523 801 c 0
 523 799 520 783 515 765 c 0
 510 747 507 732 507 731 c 1
 508 731 509 730 511 730 c 0
 513 730 520 729 527 728 c 0
 584 718 622 698 636 670 c 0
 643 656 646 642 643 627 c 0
 641 620 639 617 634 614 c 0
 612 600 558 602 543 617 c 2
 541 621 l 1
 542 632 l 2
 544 646 543 653 538 663 c 0
 532 675 519 684 504 689 c 2
 497 691 l 2
 496 691 481 629 462 555 c 0
 444 480 429 419 428 418 c 0
 428 417 430 416 435 413 c 0
 447 408 472 395 482 389 c 0
 520 365 544 338 551 306 c 0
 554 296 554 273 552 261 c 0
 549 248 542 232 537 219 c 0
 504 153 435 105 354 90 c 1
 346 89 l 1
 337 52 l 2
 327 11 327 12 319 7 c 0
 291 -7 228 1 228 18 c 0
 228 20 231 36 236 54 c 0
 241 72 244 87 244 88 c 1
 243 88 242 89 240 89 c 0
 238 89 231 90 224 91 c 0
 167 101 129 121 115 149 c 0
 108 163 105 177 108 192 c 0
 110 199 112 202 117 205 c 0
 139 219 193 217 208 202 c 2
 210 198 l 1
 209 188 l 2
 207 174 208 167 213 157 c 0
 219 145 232 135 247 130 c 2
 254 128 l 2
 255 128 270 190 289 265 c 0
 307 339 322 400 323 401 c 0
 323 402 320 404 311 408 c 0
 296 415 276 425 264 432 c 0
 226 456 202 484 195 514 c 0
 192 524 192 546 194 558 c 0
 212 642 295 711 396 729 c 1
 405 730 l 1
 414 767 l 2
 422 799 423 804 426 806 c 0
 431 811 440 815 455 818 c 0
364 569 m 0
 379 628 391 676 391 677 c 1
 390 677 374 667 367 662 c 0
 331 635 307 599 297 561 c 0
 289 530 295 504 317 479 c 0
 321 474 337 461 338 461 c 2
 338 461 349 510 364 569 c 0
427 345 m 0
 421 351 413 357 413 356 c 0
 412 355 401 306 386 249 c 2
 360 144 l 1
 363 146 l 2
 375 153 394 168 403 178 c 0
 426 202 442 230 449 259 c 0
 452 268 451 270 451 283 c 0
 451 295 452 299 450 305 c 0
 446 318 437 333 427 345 c 0
EndSplineSet
Validated: 33
EndChar

StartChar: percent
Encoding: 37 37 5
Width: 667
VWidth: 910
Flags: HW
LayerCount: 2
Fore
SplineSet
353 824 m 0
 361 825 377 825 385 824 c 0
 400 821 409 817 414 812 c 0
 420 806 416 798 403 793 c 0
 368 778 341 757 320 725 c 0
 299 693 291 653 297 625 c 0
 301 611 309 597 316 592 c 2
 319 590 l 1
 325 593 l 2
 340 601 350 613 361 629 c 0
 375 649 381 671 376 693 c 0
 374 702 375 702 378 706 c 0
 381 710 389 713 399 716 c 0
 409 719 433 720 445 718 c 0
 460 715 471 710 474 705 c 0
 475 704 477 699 477 694 c 0
 482 669 475 644 459 619 c 0
 430 575 378 550 315 550 c 0
 289 550 259 555 242 564 c 0
 217 576 203 596 197 623 c 0
 194 634 194 659 197 673 c 0
 211 737 262 793 330 818 c 0
 335 821 347 824 353 824 c 0
770 818 m 0
 785 820 806 819 818 815 c 0
 833 810 841 802 835 795 c 0
 833 794 675 616 482 401 c 0
 142 21 131 10 126 7 c 0
 101 -5 51 -2 38 13 c 0
 34 17 34 21 37 25 c 0
 39 26 197 203 390 418 c 0
 730 798 741 809 746 812 c 0
 752 815 762 817 770 818 c 0
534 269 m 0
 569 272 607 267 630 255 c 0
 655 243 669 224 675 197 c 0
 678 186 678 161 675 147 c 0
 661 83 609 26 542 1 c 0
 515 -10 470 -7 458 7 c 0
 452 13 456 21 470 26 c 0
 505 41 531 63 552 95 c 0
 573 127 581 166 575 194 c 0
 571 208 563 223 556 228 c 2
 553 229 l 1
 547 226 l 2
 532 218 522 206 511 190 c 0
 497 170 491 148 496 127 c 0
 498 117 497 117 494 113 c 0
 491 109 483 106 473 103 c 0
 463 100 439 99 427 101 c 0
 412 104 401 110 398 115 c 0
 395 119 393 132 393 141 c 0
 393 150 395 162 399 171 c 0
 408 198 429 225 456 242 c 0
 477 256 507 266 534 269 c 0
EndSplineSet
Validated: 33
EndChar

StartChar: ampersand
Encoding: 38 38 6
Width: 546
VWidth: 910
Flags: HW
LayerCount: 2
Fore
SplineSet
452 824 m 0
 463 825 496 824 508 823 c 0
 551 816 580 799 597 772 c 0
 610 751 616 726 618 693 c 0
 619 652 609 605 594 574 c 0
 573 533 540 496 489 457 c 0
 468 442 443 425 409 404 c 0
 394 396 376 385 370 380 c 2
 357 372 l 1
 362 351 l 2
 376 298 392 248 413 199 c 0
 418 186 430 162 431 161 c 0
 433 159 446 190 452 211 c 0
 454 217 456 223 457 224 c 0
 461 227 469 231 478 233 c 0
 485 235 488 235 505 235 c 0
 522 235 525 235 532 233 c 0
 542 230 550 226 553 222 c 0
 556 217 556 216 549 196 c 0
 536 157 515 121 487 89 c 2
 479 80 l 1
 484 73 l 2
 498 56 510 43 525 30 c 0
 530 26 534 23 534 22 c 0
 537 17 533 12 524 7 c 0
 505 -2 463 -2 445 7 c 0
 440 10 428 18 421 25 c 2
 416 31 l 1
 404 25 l 2
 377 10 347 1 312 -4 c 0
 294 -6 255 -6 239 -3 c 0
 214 1 192 8 177 17 c 0
 130 43 104 96 106 162 c 0
 108 197 114 229 127 255 c 0
 145 290 174 322 220 357 c 0
 229 364 252 380 254 380 c 2
 254 380 253 387 251 394 c 0
 245 424 241 456 238 490 c 0
 236 506 236 559 238 573 c 0
 245 645 278 717 325 764 c 0
 348 787 367 799 392 810 c 0
 409 816 431 822 452 824 c 0
481 783 m 0
 478 785 474 786 473 786 c 0
 469 786 458 781 451 776 c 0
 409 751 373 698 352 635 c 0
 345 614 342 596 339 572 c 0
 337 557 337 506 339 486 c 0
 342 464 344 440 345 439 c 0
 346 438 380 459 397 472 c 0
 451 513 487 554 502 597 c 0
 516 632 520 681 515 716 c 0
 510 746 497 772 481 783 c 0
278 291 m 0
 275 300 272 308 272 308 c 2
 271 308 260 296 252 287 c 0
 232 262 218 235 213 206 c 0
 202 150 208 101 232 66 c 0
 243 49 263 34 276 32 c 0
 281 32 294 34 306 39 c 0
 327 47 345 59 370 80 c 2
 373 83 l 1
 370 88 l 2
 336 137 300 219 278 291 c 0
EndSplineSet
Validated: 33
EndChar

StartChar: parenleft
Encoding: 40 40 7
Width: 212
VWidth: 910
Flags: HW
LayerCount: 2
Fore
SplineSet
319 848 m 0
 330 850 357 850 367 847 c 0
 381 843 390 837 390 832 c 0
 390 830 385 819 379 806 c 0
 251 537 183 266 179 0 c 1
 179 -15 l 1
 176 -18 l 2
 172 -22 166 -24 155 -27 c 0
 149 -29 144 -29 128 -29 c 0
 112 -29 108 -29 102 -27 c 0
 91 -24 85 -22 81 -17 c 2
 78 -15 l 1
 78 5 l 2
 78 48 83 115 89 170 c 0
 112 369 170 571 259 769 c 0
 272 796 288 833 290 836 c 0
 294 841 305 845 319 848 c 0
EndSplineSet
Validated: 33
EndChar

StartChar: parenright
Encoding: 41 41 8
Width: 212
VWidth: 910
Flags: HW
LayerCount: 2
Fore
SplineSet
272 848 m 0
 273 849 282 849 291 849 c 0
 305 848 310 849 316 847 c 0
 326 844 332 841 336 836 c 2
 339 834 l 1
 339 815 l 2
 339 772 334 704 328 650 c 0
 305 450 247 248 158 51 c 0
 147 26 129 -10 127 -15 c 0
 122 -21 111 -27 95 -29 c 0
 83 -31 60 -30 51 -27 c 0
 36 -23 27 -18 27 -13 c 0
 27 -11 32 0 38 13 c 0
 166 282 234 553 238 819 c 1
 238 834 l 1
 241 837 l 2
 246 842 255 845 272 848 c 0
EndSplineSet
Validated: 33
EndChar

StartChar: asterisk
Encoding: 42 42 9
Width: 485
VWidth: 910
Flags: HW
LayerCount: 2
Fore
SplineSet
426 818 m 0
 446 821 470 818 483 811 c 0
 488 809 493 804 493 801 c 2
 493 801 488 782 483 760 c 0
 478 738 473 720 473 719 c 0
 473 718 483 723 495 729 c 0
 510 737 518 741 523 742 c 0
 564 752 615 737 600 721 c 0
 598 718 582 709 532 684 c 0
 479 658 466 651 467 650 c 0
 468 650 488 635 513 619 c 0
 538 603 560 587 562 585 c 0
 567 581 567 579 564 575 c 0
 561 569 550 565 535 562 c 0
 525 560 503 560 493 562 c 0
 480 565 476 566 458 579 c 0
 449 584 441 590 441 590 c 1
 441 590 436 570 430 545 c 0
 418 496 418 498 410 493 c 0
 382 479 319 487 319 504 c 0
 319 506 336 577 339 585 c 0
 339 587 332 583 316 575 c 0
 296 565 291 565 284 563 c 0
 273 560 250 560 239 562 c 0
 214 566 202 576 212 585 c 0
 214 587 244 603 280 621 c 0
 315 639 346 654 346 654 c 2
 346 655 324 669 298 686 c 0
 272 704 249 720 248 722 c 0
 245 726 244 729 249 733 c 0
 255 740 270 743 289 745 c 0
 304 746 323 744 334 739 c 0
 336 738 345 732 354 726 c 0
 363 720 370 715 370 716 c 1
 371 716 376 736 382 760 c 0
 392 802 393 804 396 807 c 0
 401 812 412 816 426 818 c 0
EndSplineSet
Validated: 33
EndChar

StartChar: plus
Encoding: 43 43 10
Width: 607
VWidth: 910
Flags: HW
LayerCount: 2
Fore
SplineSet
437 613 m 0
 451 615 472 614 484 610 c 0
 493 607 500 603 502 598 c 0
 503 596 495 563 470 461 c 0
 452 387 436 327 436 327 c 2
 436 326 476 326 524 326 c 0
 575 326 615 326 619 325 c 0
 645 321 660 311 651 301 c 0
 647 296 634 291 619 289 c 0
 615 288 574 289 519 289 c 2
 426 289 l 1
 392 152 l 2
 374 77 358 16 357 14 c 0
 355 11 348 7 343 5 c 0
 320 -3 285 -1 268 7 c 0
 263 10 258 15 258 18 c 0
 258 19 323 282 325 287 c 0
 325 289 319 289 232 289 c 0
 141 290 139 289 132 291 c 0
 99 299 99 315 132 323 c 0
 139 325 141 325 237 326 c 2
 334 327 l 1
 369 463 l 2
 398 580 403 600 405 602 c 0
 410 607 422 611 437 613 c 0
EndSplineSet
Validated: 33
EndChar

StartChar: comma
Encoding: 44 44 11
Width: 182
VWidth: 910
Flags: HW
LayerCount: 2
Fore
SplineSet
80 36 m 0
 94 38 115 37 127 33 c 0
 137 30 144 26 146 21 c 0
 148 17 140 -7 131 -28 c 0
 117 -60 88 -107 78 -113 c 0
 72 -116 62 -119 52 -120 c 0
 40 -122 17 -121 8 -118 c 0
 -7 -114 -15 -108 -15 -103 c 0
 -15 -101 -12 -97 -7 -89 c 0
 17 -56 33 -24 45 17 c 0
 47 22 47 24 49 26 c 0
 54 31 66 34 80 36 c 0
EndSplineSet
Validated: 33
EndChar

StartChar: hyphen
Encoding: 45 45 12
Width: 607
VWidth: 910
Flags: HW
LayerCount: 2
Fore
SplineSet
142 325 m 0
 149 326 611 326 619 325 c 0
 640 322 654 315 654 307 c 0
 654 299 640 292 618 289 c 0
 613 288 529 289 375 289 c 2
 140 289 l 1
 132 291 l 2
 127 292 121 294 118 296 c 0
 96 306 108 320 142 325 c 0
EndSplineSet
Validated: 33
EndChar

StartChar: period
Encoding: 46 46 13
Width: 182
VWidth: 910
Flags: HW
LayerCount: 2
Fore
SplineSet
76 43 m 0
 110 48 146 41 155 28 c 0
 159 23 159 21 155 16 c 0
 143 1 91 -6 58 5 c 0
 44 10 36 17 36 23 c 0
 36 26 41 31 46 34 c 0
 51 38 65 42 76 43 c 0
EndSplineSet
Validated: 33
EndChar

StartChar: slash
Encoding: 47 47 14
Width: 425
VWidth: 910
Flags: HW
LayerCount: 2
Fore
SplineSet
528 818 m 0
 543 820 564 819 576 815 c 0
 588 812 594 806 594 801 c 0
 594 798 540 704 364 405 c 0
 146 34 133 12 129 9 c 0
 114 0 80 -2 56 4 c 0
 43 8 35 13 35 18 c 0
 35 21 90 114 265 413 c 0
 392 629 496 806 497 807 c 0
 502 812 515 816 528 818 c 0
EndSplineSet
Validated: 33
EndChar

StartChar: zero
Encoding: 48 48 15
Width: 546
VWidth: 910
Flags: HW
LayerCount: 2
Fore
SplineSet
450 824 m 0
 463 825 499 824 512 823 c 0
 541 818 564 810 583 797 c 0
 592 792 607 778 612 769 c 0
 625 751 630 730 635 699 c 0
 637 688 637 639 635 624 c 0
 630 566 618 512 593 411 c 0
 561 281 539 212 510 153 c 0
 489 113 470 84 445 59 c 0
 409 24 371 4 316 -3 c 0
 297 -6 258 -6 240 -4 c 0
 210 1 186 9 167 22 c 0
 158 27 144 41 139 50 c 0
 126 68 121 89 116 120 c 0
 114 131 114 180 116 196 c 0
 121 253 132 308 157 409 c 0
 172 473 182 506 195 546 c 0
 221 630 251 693 286 737 c 0
 296 750 317 770 329 779 c 0
 363 804 402 819 450 824 c 0
488 784 m 0
 475 790 463 788 441 776 c 0
 398 754 360 705 327 629 c 0
 303 573 285 514 258 406 c 0
 229 288 217 224 215 166 c 0
 213 98 230 50 263 35 c 0
 269 32 271 33 278 33 c 0
 298 33 325 48 350 72 c 0
 396 118 432 194 467 316 c 0
 475 341 482 369 493 414 c 0
 522 531 534 596 536 654 c 0
 538 722 521 769 488 784 c 0
EndSplineSet
Validated: 33
EndChar

StartChar: one
Encoding: 49 49 16
Width: 379
VWidth: 910
Flags: HW
LayerCount: 2
Fore
SplineSet
451 818 m 0
 461 820 484 819 494 816 c 0
 509 812 519 807 519 801 c 0
 519 799 476 625 423 414 c 2
 327 31 l 1
 331 29 l 1
 348 18 335 5 304 1 c 0
 295 0 251 0 242 1 c 0
 207 6 196 22 222 32 c 2
 226 34 l 1
 309 368 l 2
 355 551 393 702 393 702 c 2
 393 703 364 681 329 655 c 0
 283 621 264 608 260 606 c 0
 249 602 241 601 223 602 c 0
 208 602 204 601 198 603 c 0
 183 607 173 614 173 619 c 0
 173 621 174 622 177 625 c 0
 182 630 424 809 429 812 c 0
 434 814 442 816 451 818 c 0
EndSplineSet
Validated: 33
EndChar

StartChar: two
Encoding: 50 50 17
Width: 546
VWidth: 910
Flags: HW
LayerCount: 2
Fore
SplineSet
454 824 m 0
 463 825 501 824 512 823 c 0
 560 817 598 799 623 772 c 0
 652 741 661 700 649 654 c 0
 635 598 603 539 555 482 c 0
 522 443 481 401 404 330 c 0
 368 296 342 273 323 254 c 0
 257 188 212 131 187 75 c 0
 182 65 172 39 172 38 c 0
 172 37 234 37 310 37 c 0
 427 37 451 37 458 36 c 0
 503 29 501 6 455 1 c 0
 449 0 399 0 272 0 c 2
 98 1 l 1
 90 3 l 2
 80 5 71 9 67 13 c 0
 65 16 66 16 66 20 c 0
 67 23 68 31 70 37 c 0
 85 88 116 141 160 194 c 0
 193 233 234 274 312 346 c 0
 403 430 444 471 479 518 c 0
 489 532 506 555 512 568 c 0
 533 603 548 646 553 674 c 0
 558 712 544 747 517 769 c 0
 505 779 490 786 478 787 c 0
 456 789 414 770 384 745 c 0
 358 723 339 695 329 664 c 0
 325 654 324 653 321 650 c 0
 316 645 308 643 297 640 c 0
 285 638 259 639 248 642 c 0
 234 646 225 652 225 657 c 0
 225 658 226 665 228 672 c 0
 253 743 326 801 412 818 c 0
 424 821 441 823 454 824 c 0
EndSplineSet
Validated: 33
EndChar

StartChar: three
Encoding: 51 51 18
Width: 546
VWidth: 910
Flags: HW
LayerCount: 2
Fore
SplineSet
448 824 m 0
 461 825 497 824 509 823 c 0
 543 818 568 810 589 795 c 0
 600 788 617 771 623 761 c 0
 659 706 659 627 622 551 c 0
 600 506 570 470 533 442 c 0
 518 430 495 418 478 411 c 2
 473 409 l 1
 480 405 l 2
 528 378 554 326 552 261 c 0
 549 179 501 95 431 44 c 0
 396 19 358 3 312 -4 c 0
 297 -6 257 -6 242 -4 c 0
 183 3 139 23 108 55 c 0
 96 69 84 86 84 91 c 0
 84 95 90 100 95 103 c 0
 107 108 112 108 134 108 c 0
 155 108 158 109 170 104 c 0
 177 101 182 98 188 87 c 0
 199 71 210 60 225 50 c 0
 239 40 257 34 271 32 c 0
 298 30 346 58 380 95 c 0
 415 135 439 182 448 234 c 0
 450 247 450 251 450 269 c 0
 450 292 448 303 443 319 c 0
 436 343 425 361 410 374 c 0
 395 386 385 390 370 391 c 0
 354 392 343 395 335 400 c 0
 330 402 325 407 325 411 c 0
 325 414 330 419 335 421 c 0
 343 426 360 429 373 429 c 0
 388 429 411 437 433 452 c 0
 469 476 500 511 522 555 c 0
 537 586 544 613 548 646 c 0
 552 685 542 728 523 754 c 0
 509 773 487 787 472 787 c 0
 469 787 463 787 458 786 c 0
 422 780 378 756 344 725 c 0
 337 719 331 716 320 713 c 0
 314 711 311 711 294 711 c 0
 278 711 273 711 268 712 c 0
 252 717 243 722 243 728 c 0
 243 732 243 732 248 737 c 0
 252 740 260 747 266 752 c 0
 317 794 377 818 448 824 c 0
EndSplineSet
Validated: 33
EndChar

StartChar: four
Encoding: 52 52 19
Width: 500
VWidth: 910
Flags: HW
LayerCount: 2
Fore
SplineSet
309 818 m 0
 323 820 341 820 355 816 c 0
 367 813 377 806 377 801 c 0
 377 799 281 527 279 524 c 0
 279 523 297 523 320 523 c 2
 360 524 l 1
 370 561 l 2
 375 585 380 599 381 601 c 0
 385 606 393 610 406 613 c 0
 418 615 443 615 455 612 c 0
 470 608 480 602 480 596 c 0
 480 594 476 578 471 559 c 0
 466 540 462 524 462 524 c 2
 462 523 485 523 513 523 c 0
 560 522 565 523 572 521 c 0
 605 514 605 496 572 489 c 0
 565 487 562 487 508 486 c 2
 452 486 l 1
 394 251 l 2
 339 33 335 16 333 13 c 0
 320 -1 271 -5 246 7 c 0
 241 10 235 14 235 18 c 0
 235 19 348 477 351 484 c 0
 351 486 348 486 282 486 c 0
 209 486 203 486 190 491 c 0
 180 494 173 498 172 503 c 0
 171 504 192 564 224 654 c 0
 267 777 276 804 279 806 c 0
 284 811 294 815 309 818 c 0
EndSplineSet
Validated: 33
EndChar

StartChar: five
Encoding: 53 53 20
Width: 546
VWidth: 910
Flags: HW
LayerCount: 2
Fore
SplineSet
293 818 m 0
 298 819 338 819 477 819 c 2
 654 818 l 1
 661 816 l 2
 694 808 694 793 661 785 c 2
 654 783 l 1
 505 782 l 1
 357 782 l 1
 335 693 l 2
 323 644 312 604 312 603 c 0
 312 602 312 602 314 602 c 0
 319 605 345 611 355 613 c 0
 380 618 395 619 421 619 c 0
 446 620 456 619 475 614 c 0
 490 611 502 607 515 602 c 0
 554 582 577 544 585 486 c 0
 587 469 587 422 585 402 c 0
 575 311 544 212 504 142 c 0
 486 110 468 86 446 63 c 0
 406 24 364 3 308 -4 c 0
 294 -6 253 -6 238 -4 c 0
 206 1 180 8 157 20 c 0
 136 30 123 40 108 55 c 0
 96 69 84 86 84 91 c 0
 84 95 90 100 95 103 c 0
 107 108 112 108 134 108 c 0
 155 108 158 109 170 104 c 0
 177 101 182 98 187 89 c 0
 202 67 217 53 237 43 c 0
 252 36 268 31 278 32 c 0
 288 33 304 40 319 49 c 0
 343 64 367 90 389 122 c 0
 436 193 473 302 484 404 c 0
 486 424 486 468 484 483 c 0
 480 508 476 525 468 542 c 0
 459 559 447 573 433 579 c 0
 426 583 421 584 407 581 c 0
 392 578 374 571 356 563 c 0
 332 551 317 542 289 518 c 0
 279 509 265 505 242 505 c 0
 217 505 198 511 193 520 c 2
 191 523 l 1
 226 664 l 2
 258 791 261 804 264 806 c 0
 269 811 278 815 293 818 c 0
EndSplineSet
Validated: 33
EndChar

StartChar: six
Encoding: 54 54 21
Width: 546
VWidth: 910
Flags: HW
LayerCount: 2
Fore
SplineSet
487 829 m 0
 509 831 536 831 556 826 c 0
 603 816 636 789 645 752 c 0
 647 744 647 744 645 741 c 0
 642 735 632 730 617 727 c 0
 604 725 579 726 569 729 c 0
 553 733 547 737 545 747 c 0
 541 760 533 775 525 782 c 0
 520 787 512 792 509 792 c 0
 505 792 492 788 483 783 c 0
 439 760 396 713 358 647 c 0
 350 632 336 606 336 605 c 2
 347 609 l 2
 358 613 377 616 392 618 c 0
 407 620 444 620 459 618 c 0
 482 614 505 607 520 598 c 0
 557 578 577 542 585 486 c 0
 587 469 587 422 585 402 c 0
 576 322 552 236 519 169 c 0
 496 123 474 92 446 63 c 0
 406 24 364 3 308 -4 c 0
 293 -6 257 -6 242 -4 c 0
 218 0 195 7 180 16 c 0
 148 33 128 63 119 106 c 0
 110 144 111 196 121 253 c 0
 127 296 147 372 167 438 c 0
 220 604 283 717 357 776 c 0
 395 807 441 824 487 829 c 0
433 579 m 0
 428 582 423 583 419 582 c 0
 383 573 343 540 310 490 c 0
 263 419 227 311 216 211 c 0
 215 200 215 188 215 169 c 0
 215 140 215 128 220 108 c 0
 227 73 245 45 267 35 c 0
 277 30 286 32 304 41 c 0
 352 65 399 126 433 208 c 0
 458 270 477 338 484 404 c 0
 485 414 485 426 485 445 c 0
 485 474 485 486 480 506 c 0
 473 541 455 568 433 579 c 0
EndSplineSet
Validated: 33
EndChar

StartChar: seven
Encoding: 55 55 22
Width: 485
VWidth: 910
Flags: HW
LayerCount: 2
Fore
SplineSet
263 818 m 0
 268 819 309 819 442 819 c 0
 624 819 622 820 636 815 c 0
 648 812 654 806 654 801 c 0
 654 798 603 716 411 407 c 0
 276 191 165 14 163 13 c 0
 145 -7 64 -2 66 19 c 0
 66 22 126 118 303 401 c 0
 434 610 541 781 541 782 c 2
 406 782 l 2
 293 782 270 782 263 783 c 0
 248 786 238 790 233 795 c 0
 229 800 229 801 233 806 c 0
 238 811 248 815 263 818 c 0
EndSplineSet
Validated: 33
EndChar

StartChar: eight
Encoding: 56 56 23
Width: 546
VWidth: 910
Flags: HW
LayerCount: 2
Fore
SplineSet
456 824 m 0
 463 825 500 824 510 823 c 0
 531 819 554 813 570 805 c 0
 607 787 632 752 642 708 c 0
 650 670 644 621 628 583 c 0
 604 527 553 481 456 427 c 0
 447 422 440 418 441 418 c 2
 441 418 445 414 450 411 c 0
 455 407 463 402 468 397 c 0
 537 340 560 282 544 216 c 0
 528 150 486 87 431 45 c 0
 396 19 355 1 309 -4 c 0
 294 -6 257 -6 242 -4 c 0
 198 2 170 15 145 39 c 0
 123 62 109 91 104 128 c 0
 102 139 102 175 104 187 c 0
 111 243 132 284 174 323 c 0
 205 353 240 376 316 418 c 2
 322 421 l 1
 309 431 l 2
 289 446 278 456 263 471 c 0
 243 491 229 509 221 529 c 0
 204 568 207 609 232 664 c 0
 255 713 293 759 338 786 c 0
 369 806 405 819 442 823 c 0
 447 824 453 824 456 824 c 0
485 784 m 0
 475 789 467 788 448 780 c 0
 386 754 329 680 314 605 c 0
 305 561 320 521 358 483 c 0
 369 472 386 457 388 457 c 0
 390 457 419 476 434 485 c 0
 493 525 525 567 538 618 c 0
 545 650 546 680 540 707 c 0
 537 720 534 728 529 739 c 0
 519 760 503 776 485 784 c 0
381 377 m 0
 377 380 375 382 374 382 c 0
 373 382 366 378 358 373 c 0
 294 336 260 307 236 272 c 0
 216 242 205 207 203 165 c 0
 202 127 211 91 228 66 c 0
 242 46 265 31 279 32 c 0
 286 33 300 38 312 43 c 0
 331 53 351 68 369 85 c 0
 405 122 433 172 444 221 c 0
 454 260 447 296 424 330 c 0
 413 346 399 362 381 377 c 0
EndSplineSet
Validated: 33
EndChar

StartChar: nine
Encoding: 57 57 24
Width: 546
VWidth: 910
Flags: HW
LayerCount: 2
Fore
SplineSet
456 824 m 0
 464 825 499 824 510 822 c 0
 525 820 542 816 554 811 c 0
 595 795 621 763 632 713 c 0
 636 698 637 682 638 660 c 0
 639 601 628 539 597 430 c 0
 572 340 546 270 515 208 c 0
 461 100 403 35 330 6 c 0
 268 -19 190 -15 146 13 c 0
 126 27 111 45 106 67 c 0
 104 75 104 75 106 78 c 0
 109 84 119 89 134 92 c 0
 147 94 172 93 183 90 c 0
 198 86 204 82 206 72 c 0
 210 59 218 44 226 37 c 0
 231 32 239 27 242 27 c 0
 246 27 259 31 268 36 c 0
 312 59 355 106 393 173 c 0
 401 187 415 213 415 214 c 2
 404 210 l 2
 393 206 374 203 359 201 c 0
 344 199 308 199 293 201 c 0
 269 205 246 212 231 221 c 0
 194 241 174 278 166 334 c 0
 164 350 164 397 166 418 c 0
 175 497 199 583 232 651 c 0
 255 696 277 727 305 756 c 0
 340 791 375 810 421 819 c 0
 433 822 439 823 456 824 c 0
484 784 m 0
 479 787 474 787 470 786 c 0
 434 777 394 744 361 694 c 0
 314 623 278 516 267 416 c 0
 266 405 266 393 266 374 c 0
 266 345 266 333 271 313 c 0
 278 278 296 250 318 240 c 0
 328 235 337 237 355 246 c 0
 403 270 450 330 484 412 c 0
 509 474 528 543 535 609 c 0
 536 619 536 631 536 650 c 0
 536 679 536 691 531 711 c 0
 524 746 506 773 484 784 c 0
EndSplineSet
Validated: 33
EndChar

StartChar: colon
Encoding: 58 58 25
Width: 182
VWidth: 910
Flags: HW
LayerCount: 2
Fore
SplineSet
218 613 m 0
 252 618 288 611 297 598 c 0
 301 593 301 591 297 586 c 0
 285 571 233 564 200 575 c 0
 186 580 178 587 178 593 c 0
 178 596 183 600 188 603 c 0
 193 607 207 612 218 613 c 0
76 43 m 0
 110 48 146 41 155 28 c 0
 159 23 159 21 155 16 c 0
 143 1 91 -6 58 5 c 0
 44 10 36 17 36 23 c 0
 36 26 41 31 46 34 c 0
 51 38 65 42 76 43 c 0
EndSplineSet
Validated: 33
EndChar

StartChar: semicolon
Encoding: 59 59 26
Width: 182
VWidth: 910
Flags: HW
LayerCount: 2
Fore
SplineSet
218 616 m 0
 252 621 289 615 298 602 c 0
 302 597 302 595 298 590 c 0
 286 575 234 568 201 579 c 0
 187 584 179 590 179 596 c 0
 179 599 183 604 188 607 c 0
 193 611 207 615 218 616 c 0
80 36 m 0
 94 38 115 37 127 33 c 0
 137 30 144 26 146 21 c 0
 148 17 140 -7 131 -28 c 0
 117 -60 88 -107 78 -113 c 0
 72 -116 62 -119 52 -120 c 0
 40 -122 17 -121 8 -118 c 0
 -7 -114 -15 -108 -15 -103 c 0
 -15 -101 -12 -97 -7 -89 c 0
 17 -56 33 -24 45 17 c 0
 47 22 47 24 49 26 c 0
 54 31 66 34 80 36 c 0
EndSplineSet
Validated: 33
EndChar

StartChar: less
Encoding: 60 60 27
Width: 607
VWidth: 910
Flags: HW
LayerCount: 2
Fore
SplineSet
656 613 m 0
 667 615 691 615 701 612 c 0
 722 607 731 597 722 589 c 0
 720 587 610 525 468 446 c 0
 330 370 217 306 217 306 c 2
 217 305 298 243 395 167 c 0
 493 91 575 28 578 25 c 0
 583 20 583 18 579 13 c 0
 571 5 549 -1 525 0 c 0
 509 1 494 4 488 9 c 0
 479 15 113 298 110 301 c 0
 106 305 106 309 111 314 c 0
 116 319 636 608 643 610 c 0
 647 611 652 612 656 613 c 0
EndSplineSet
Validated: 33
EndChar

StartChar: equal
Encoding: 61 61 28
Width: 607
VWidth: 910
Flags: HW
LayerCount: 2
Fore
SplineSet
167 428 m 0
 175 429 636 429 644 428 c 0
 670 424 685 414 676 404 c 0
 672 399 659 394 644 392 c 0
 635 391 176 391 167 392 c 0
 141 396 127 406 136 416 c 0
 140 421 153 426 167 428 c 0
114 223 m 0
 123 224 582 225 593 223 c 0
 608 221 620 216 625 211 c 0
 634 202 620 192 593 188 c 0
 588 187 498 187 355 187 c 0
 156 187 121 187 114 188 c 0
 96 191 86 195 82 202 c 0
 81 206 81 207 85 211 c 0
 89 216 99 220 114 223 c 0
EndSplineSet
Validated: 33
EndChar

StartChar: greater
Encoding: 62 62 29
Width: 607
VWidth: 910
Flags: HW
LayerCount: 2
Fore
SplineSet
213 613 m 0
 221 614 246 614 254 612 c 0
 262 610 269 608 274 604 c 0
 280 599 649 316 651 313 c 0
 655 309 655 305 651 301 c 0
 648 298 128 8 120 5 c 0
 112 2 103 1 91 0 c 0
 54 -2 25 12 38 25 c 0
 40 27 139 82 293 168 c 0
 430 244 544 309 544 309 c 1
 544 309 463 373 363 450 c 0
 264 526 181 590 180 591 c 0
 178 595 179 598 182 602 c 0
 186 607 198 611 213 613 c 0
EndSplineSet
Validated: 33
EndChar

StartChar: question
Encoding: 63 63 30
Width: 485
VWidth: 910
Flags: HW
LayerCount: 2
Fore
SplineSet
425 824 m 0
 433 826 470 824 482 822 c 0
 520 817 548 803 568 781 c 0
 609 738 619 656 595 562 c 0
 570 458 488 364 381 315 c 2
 371 310 l 1
 354 244 l 1
 338 178 l 1
 334 175 l 2
 327 168 310 164 289 164 c 0
 267 164 249 168 241 176 c 0
 239 178 238 180 238 181 c 0
 238 182 246 214 255 252 c 2
 272 322 l 1
 276 326 l 2
 279 328 282 330 290 333 c 0
 336 351 385 386 420 426 c 0
 476 489 503 561 507 647 c 0
 509 713 488 767 453 784 c 0
 446 788 442 788 431 785 c 0
 406 776 378 754 354 727 c 0
 320 688 291 632 276 576 c 0
 274 568 271 561 271 559 c 0
 266 550 246 544 221 544 c 0
 203 544 191 547 181 552 c 0
 173 556 171 558 171 564 c 0
 172 569 180 594 185 611 c 0
 220 705 277 775 343 804 c 0
 363 813 390 820 413 823 c 0
 418 824 423 824 425 824 c 0
231 36 m 0
 240 37 264 37 273 35 c 0
 306 28 306 10 273 3 c 0
 260 0 234 0 221 3 c 0
 206 7 197 12 197 18 c 0
 197 26 209 33 231 36 c 0
EndSplineSet
Validated: 33
EndChar

StartChar: at
Encoding: 64 64 31
Width: 728
VWidth: 910
Flags: HW
LayerCount: 2
Fore
SplineSet
513 728 m 0
 527 729 567 728 581 727 c 0
 639 720 682 700 715 666 c 0
 748 631 768 585 776 521 c 0
 778 503 778 454 776 434 c 0
 764 333 729 247 667 173 c 0
 657 160 630 133 618 124 c 0
 584 97 555 81 521 76 c 0
 508 74 479 74 466 76 c 0
 455 79 441 81 435 86 c 2
 431 89 l 1
 421 88 l 2
 395 83 358 86 334 93 c 0
 292 105 272 128 264 173 c 0
 262 184 262 224 264 239 c 0
 268 274 275 310 288 363 c 0
 306 435 321 481 341 521 c 0
 369 577 399 609 443 626 c 0
 468 636 508 641 538 638 c 0
 579 634 605 620 618 596 c 0
 622 589 624 580 624 575 c 0
 624 574 601 477 571 359 c 0
 524 166 514 131 516 131 c 0
 517 131 538 149 549 160 c 0
 606 217 647 295 665 379 c 0
 690 489 674 591 624 649 c 0
 601 674 569 692 542 692 c 0
 494 692 425 654 374 599 c 0
 313 533 267 447 245 355 c 0
 218 241 232 135 284 75 c 0
 295 62 309 50 324 44 c 2
 330 40 l 1
 337 43 l 2
 349 47 361 47 376 47 c 0
 413 45 434 32 426 16 c 0
 421 5 408 -1 386 -5 c 0
 372 -7 346 -6 325 -3 c 0
 243 8 189 44 157 111 c 0
 140 146 132 187 130 236 c 0
 127 356 176 491 260 591 c 0
 279 614 309 643 333 660 c 0
 386 700 445 722 513 728 c 0
515 594 m 0
 514 596 512 598 512 598 c 2
 509 598 500 591 493 586 c 0
 458 558 426 498 400 407 c 0
 383 345 370 282 365 238 c 0
 363 222 363 187 365 175 c 0
 369 156 375 139 384 130 c 2
 389 126 l 1
 392 127 l 2
 400 132 414 146 418 152 c 0
 418 154 442 248 471 365 c 0
 511 526 523 575 522 578 c 0
 522 582 519 589 515 594 c 0
EndSplineSet
Validated: 33
EndChar

StartChar: A
Encoding: 65 65 32
Width: 576
VWidth: 910
Flags: HW
LayerCount: 2
Fore
SplineSet
426 818 m 0
 430 818 457 819 488 819 c 0
 532 819 545 819 552 818 c 0
 562 816 569 815 574 811 c 0
 579 809 584 804 584 802 c 0
 584 801 574 625 560 409 c 0
 539 77 535 17 534 14 c 0
 529 7 512 1 491 0 c 0
 467 -1 445 5 438 13 c 0
 435 16 435 17 435 23 c 0
 435 30 457 378 457 386 c 2
 458 391 l 1
 386 391 l 1
 315 391 l 1
 232 203 l 2
 176 74 149 15 147 13 c 0
 134 -1 86 -5 61 7 c 0
 55 10 50 14 50 18 c 0
 50 19 127 196 221 412 c 0
 351 709 393 804 396 807 c 0
 401 812 412 816 426 818 c 0
471 600 m 0
 477 694 482 771 482 771 c 2
 481 771 447 694 406 600 c 2
 331 430 l 1
 395 429 l 2
 430 429 460 429 460 430 c 2
 460 430 466 506 471 600 c 0
EndSplineSet
Validated: 33
EndChar

StartChar: B
Encoding: 66 66 33
Width: 546
VWidth: 910
Flags: HW
LayerCount: 2
Fore
SplineSet
279 818 m 0
 287 819 318 819 338 818 c 0
 402 814 454 807 500 792 c 0
 607 757 654 696 638 613 c 0
 623 535 560 469 464 429 c 0
 453 424 423 414 413 411 c 2
 410 410 l 1
 419 406 l 2
 446 396 469 385 488 370 c 0
 498 362 515 345 522 337 c 0
 547 303 555 265 546 223 c 0
 535 163 497 113 435 76 c 0
 359 30 248 3 121 0 c 0
 94 0 84 0 72 4 c 0
 59 7 50 13 50 18 c 0
 50 23 56 29 66 33 c 0
 68 34 70 41 115 216 c 0
 146 343 159 398 158 399 c 0
 154 400 147 407 147 410 c 0
 147 413 151 417 155 420 c 2
 162 423 l 1
 167 424 l 1
 212 606 l 1
 258 788 l 1
 253 790 l 2
 246 795 243 801 248 806 c 0
 252 811 265 816 279 818 c 0
373 776 m 0
 367 777 361 778 360 778 c 0
 358 779 357 778 356 778 c 1
 356 775 269 431 269 430 c 0
 269 428 295 428 310 431 c 0
 369 439 426 465 470 502 c 0
 512 538 538 590 541 639 c 0
 543 680 524 713 489 738 c 0
 460 757 419 771 373 776 c 0
308 389 m 0
 303 390 290 390 279 391 c 2
 259 391 l 1
 216 217 l 2
 192 121 172 41 172 41 c 2
 173 41 193 43 208 46 c 0
 254 53 297 68 332 86 c 0
 395 119 433 165 446 226 c 0
 448 236 448 239 448 254 c 0
 448 273 446 284 441 299 c 0
 423 345 373 380 308 389 c 0
EndSplineSet
Validated: 33
EndChar

StartChar: C
Encoding: 67 67 34
Width: 546
VWidth: 910
Flags: HW
LayerCount: 2
Fore
SplineSet
449 824 m 0
 463 825 501 824 516 823 c 0
 587 814 641 788 677 745 c 0
 690 730 690 727 684 722 c 0
 675 714 659 710 634 710 c 0
 607 711 595 714 586 728 c 0
 578 738 563 753 553 760 c 0
 528 777 495 788 473 787 c 0
 451 785 424 770 400 747 c 0
 354 701 319 625 284 504 c 0
 276 477 269 449 258 405 c 0
 229 287 217 224 215 166 c 0
 213 98 230 50 263 35 c 0
 269 32 270 33 281 33 c 0
 321 33 379 58 425 93 c 0
 441 106 449 108 475 109 c 0
 493 109 503 109 514 104 c 0
 526 99 532 91 527 86 c 0
 522 80 496 61 477 50 c 0
 414 12 341 -7 269 -5 c 0
 225 -3 192 5 167 22 c 0
 158 27 144 41 139 50 c 0
 126 68 121 89 116 120 c 0
 114 131 114 180 116 196 c 0
 121 253 132 308 157 409 c 0
 173 473 182 506 195 546 c 0
 221 630 251 693 286 737 c 0
 296 750 317 770 329 779 c 0
 363 804 402 819 449 824 c 0
EndSplineSet
Validated: 33
EndChar

StartChar: D
Encoding: 68 68 35
Width: 530
VWidth: 910
Flags: HW
LayerCount: 2
Fore
SplineSet
279 818 m 0
 296 821 336 819 366 814 c 0
 434 802 488 776 529 732 c 0
 580 679 607 603 607 517 c 0
 607 329 479 132 302 46 c 0
 275 33 250 23 222 16 c 0
 166 1 98 -4 69 5 c 0
 58 8 50 13 50 18 c 0
 50 22 56 27 63 31 c 2
 69 34 l 1
 163 411 l 2
 215 618 257 787 258 788 c 2
 258 788 257 789 255 790 c 0
 251 792 246 797 246 800 c 0
 246 802 246 804 248 806 c 0
 253 811 264 815 279 818 c 0
376 763 m 0
 363 769 355 772 355 771 c 0
 354 769 175 51 175 50 c 1
 176 50 195 57 208 62 c 0
 303 104 390 187 446 292 c 0
 502 397 519 512 494 608 c 0
 475 679 432 736 376 763 c 0
EndSplineSet
Validated: 33
EndChar

StartChar: E
Encoding: 69 69 36
Width: 530
VWidth: 910
Flags: HW
LayerCount: 2
Fore
SplineSet
279 818 m 0
 287 819 643 819 651 818 c 0
 666 816 678 811 683 806 c 0
 692 797 678 787 651 783 c 0
 646 782 587 782 501 782 c 2
 357 782 l 1
 316 616 l 2
 293 525 274 451 274 450 c 0
 274 448 281 448 401 448 c 0
 520 447 530 447 536 446 c 0
 550 442 557 438 561 433 c 0
 564 429 564 429 561 425 c 0
 557 420 550 416 536 412 c 0
 530 411 521 412 397 411 c 2
 264 411 l 1
 218 225 l 2
 193 123 171 39 171 38 c 0
 171 37 199 37 309 37 c 0
 393 37 450 37 455 36 c 0
 481 32 496 23 487 13 c 0
 483 8 470 3 455 1 c 0
 446 0 94 0 85 1 c 0
 50 6 39 22 65 32 c 2
 68 34 l 1
 117 225 l 1
 165 417 l 1
 160 419 l 2
 149 426 151 436 166 441 c 0
 169 442 171 443 171 444 c 2
 171 444 190 521 214 616 c 2
 258 788 l 1
 253 790 l 2
 246 795 243 801 248 806 c 0
 252 811 265 816 279 818 c 0
EndSplineSet
Validated: 33
EndChar

StartChar: F
Encoding: 70 70 37
Width: 530
VWidth: 910
Flags: HW
LayerCount: 2
Fore
SplineSet
279 818 m 0
 287 819 643 819 651 818 c 0
 666 816 678 811 683 806 c 0
 692 797 678 787 651 783 c 0
 646 782 587 782 501 782 c 2
 357 782 l 1
 316 616 l 2
 293 525 274 451 274 450 c 0
 274 448 281 448 401 448 c 0
 520 447 530 447 536 446 c 0
 550 442 557 438 561 433 c 0
 564 429 564 429 561 425 c 0
 557 420 550 416 536 412 c 0
 530 411 521 412 397 411 c 2
 264 411 l 1
 215 213 l 2
 167 19 166 15 163 12 c 0
 154 4 133 -1 110 0 c 0
 84 2 66 9 66 18 c 0
 66 20 89 110 115 219 c 2
 165 417 l 1
 160 419 l 2
 149 426 151 436 166 441 c 0
 169 442 171 443 171 444 c 2
 171 444 190 521 214 616 c 2
 258 788 l 1
 253 790 l 2
 246 795 243 801 248 806 c 0
 252 811 265 816 279 818 c 0
EndSplineSet
Validated: 33
EndChar

StartChar: G
Encoding: 71 71 38
Width: 546
VWidth: 910
Flags: HW
LayerCount: 2
Fore
SplineSet
449 824 m 0
 463 825 500 824 514 823 c 0
 585 814 637 785 668 739 c 0
 674 729 675 727 670 722 c 0
 665 718 661 716 650 713 c 0
 644 711 641 711 624 711 c 0
 602 711 598 710 586 715 c 0
 579 718 575 722 570 730 c 0
 550 759 522 780 491 786 c 0
 474 790 460 786 441 776 c 0
 398 754 360 705 327 629 c 0
 303 573 285 514 258 405 c 0
 229 287 217 224 215 166 c 0
 213 98 230 50 263 35 c 0
 269 32 270 33 280 33 c 0
 298 33 323 39 348 52 c 0
 370 62 388 73 405 88 c 2
 413 96 l 1
 451 243 l 1
 488 391 l 1
 427 391 l 2
 364 391 357 391 344 396 c 0
 333 399 325 406 325 411 c 0
 325 416 333 421 344 424 c 0
 358 429 361 429 467 429 c 0
 573 429 576 429 590 424 c 0
 601 421 609 416 609 411 c 0
 609 407 603 402 598 399 c 0
 594 397 592 396 591 396 c 2
 591 396 573 327 552 241 c 2
 513 87 l 1
 510 84 l 2
 490 66 460 45 432 31 c 0
 396 13 360 1 316 -4 c 0
 298 -6 256 -6 240 -4 c 0
 210 1 186 9 167 22 c 0
 158 27 144 41 139 50 c 0
 126 68 121 89 116 120 c 0
 114 131 114 180 116 196 c 0
 121 253 132 308 157 409 c 0
 173 473 182 506 195 546 c 0
 221 630 251 693 286 737 c 0
 296 750 317 770 329 779 c 0
 363 804 402 819 449 824 c 0
EndSplineSet
Validated: 33
EndChar

StartChar: H
Encoding: 72 72 39
Width: 546
VWidth: 910
Flags: HW
LayerCount: 2
Fore
SplineSet
293 818 m 0
 303 820 327 819 337 816 c 0
 352 812 361 807 361 801 c 0
 361 799 342 720 318 624 c 0
 294 528 274 449 274 449 c 2
 274 448 324 448 385 448 c 2
 496 449 l 1
 541 626 l 2
 590 823 585 807 594 812 c 0
 622 826 685 818 685 801 c 0
 685 799 666 718 641 620 c 2
 596 441 l 2
 596 440 597 441 599 440 c 0
 603 438 608 433 608 430 c 0
 608 426 602 421 596 417 c 2
 590 414 l 1
 540 215 l 2
 491 19 490 15 487 12 c 0
 483 8 478 7 470 4 c 0
 438 -5 390 3 390 18 c 0
 390 20 484 400 487 409 c 0
 487 411 482 411 376 411 c 2
 264 411 l 1
 215 213 l 2
 167 19 166 15 163 12 c 0
 154 4 133 -1 110 0 c 0
 84 2 66 9 66 18 c 0
 66 20 89 110 115 219 c 2
 165 417 l 1
 160 419 l 2
 148 426 151 436 166 441 c 0
 171 443 171 444 172 447 c 0
 172 449 193 530 218 627 c 0
 257 787 261 804 264 806 c 0
 269 811 278 815 293 818 c 0
EndSplineSet
Validated: 33
EndChar

StartChar: I
Encoding: 73 73 40
Width: 334
VWidth: 910
Flags: HW
LayerCount: 2
Fore
SplineSet
334 818 m 0
 345 820 398 819 407 817 c 0
 421 813 427 810 431 805 c 0
 434 801 434 800 431 796 c 0
 428 792 424 790 419 787 c 2
 414 786 l 1
 320 409 l 2
 268 201 226 32 226 31 c 2
 226 31 226 30 228 29 c 0
 232 27 238 22 238 19 c 0
 238 15 233 10 228 7 c 0
 222 4 212 2 202 1 c 0
 189 -1 141 0 132 2 c 0
 118 6 111 10 107 15 c 0
 104 19 104 19 107 23 c 0
 110 27 115 29 120 32 c 2
 125 33 l 1
 218 411 l 2
 270 619 313 787 313 788 c 2
 313 788 312 789 310 790 c 0
 306 792 301 797 301 800 c 0
 301 802 302 804 304 806 c 0
 309 811 319 815 334 818 c 0
EndSplineSet
Validated: 33
EndChar

StartChar: J
Encoding: 74 74 41
Width: 455
VWidth: 910
Flags: HW
LayerCount: 2
Fore
SplineSet
512 818 m 0
 520 819 567 819 575 818 c 0
 596 815 610 808 610 801 c 0
 610 796 603 790 593 786 c 0
 591 785 588 773 509 454 c 0
 450 218 425 121 422 114 c 0
 415 97 402 77 386 62 c 0
 353 30 311 11 256 3 c 0
 244 1 238 1 218 1 c 0
 192 1 180 1 160 6 c 0
 107 18 73 47 63 86 c 0
 61 92 61 95 61 108 c 0
 61 131 63 138 74 143 c 0
 98 155 149 151 161 137 c 0
 164 133 164 134 162 119 c 0
 161 110 161 97 164 88 c 0
 168 70 181 52 198 44 c 0
 211 37 218 36 233 41 c 0
 265 50 295 73 313 101 c 0
 322 116 319 100 408 456 c 2
 491 788 l 1
 486 790 l 2
 479 795 477 801 482 806 c 0
 486 811 498 816 512 818 c 0
EndSplineSet
Validated: 33
EndChar

StartChar: K
Encoding: 75 75 42
Width: 530
VWidth: 910
Flags: HW
LayerCount: 2
Fore
SplineSet
293 818 m 0
 303 820 327 819 337 816 c 0
 352 812 361 807 361 801 c 0
 361 799 347 739 329 667 c 0
 296 537 296 537 299 540 c 0
 301 541 367 602 446 675 c 0
 542 764 591 810 594 811 c 0
 618 824 668 821 683 806 c 0
 687 802 687 799 683 795 c 0
 681 793 590 709 482 609 c 0
 373 508 285 426 285 425 c 2
 292 427 l 2
 300 429 330 429 339 427 c 0
 353 423 361 419 364 414 c 0
 366 409 490 21 490 18 c 0
 490 5 452 -4 421 1 c 0
 406 4 397 8 392 13 c 0
 390 15 380 47 329 208 c 0
 294 314 266 402 266 404 c 0
 265 406 264 407 264 406 c 1
 263 406 241 317 214 210 c 0
 160 -7 166 12 157 7 c 0
 129 -7 66 1 66 18 c 0
 66 20 109 197 164 412 c 0
 252 768 261 804 264 806 c 0
 269 811 278 815 293 818 c 0
EndSplineSet
Validated: 33
EndChar

StartChar: L
Encoding: 76 76 43
Width: 516
VWidth: 910
Flags: HW
LayerCount: 2
Fore
SplineSet
293 818 m 0
 303 820 327 819 337 816 c 0
 352 812 361 807 361 801 c 0
 361 799 174 48 171 39 c 0
 171 37 178 37 310 37 c 0
 457 37 457 38 471 33 c 0
 482 30 491 23 491 18 c 0
 491 13 482 8 471 5 c 0
 457 0 459 0 270 0 c 0
 161 0 90 0 85 1 c 0
 64 4 50 11 50 19 c 0
 50 24 56 29 66 33 c 0
 68 34 72 48 165 419 c 0
 260 798 261 804 264 807 c 0
 269 812 278 815 293 818 c 0
EndSplineSet
Validated: 33
EndChar

StartChar: M
Encoding: 77 77 44
Width: 789
VWidth: 910
Flags: HW
LayerCount: 2
Fore
SplineSet
293 818 m 0
 303 820 327 819 337 816 c 0
 352 812 360 807 361 801 c 0
 362 799 381 669 405 512 c 0
 429 355 448 224 449 223 c 0
 449 220 465 243 639 512 c 0
 744 672 829 805 831 806 c 0
 838 814 861 820 884 819 c 0
 909 817 928 810 928 801 c 0
 928 799 885 622 830 407 c 0
 742 51 733 15 730 13 c 0
 723 5 700 -1 677 0 c 0
 652 2 633 9 633 18 c 0
 633 20 662 138 698 281 c 0
 733 425 763 542 763 542 c 2
 763 543 696 440 615 315 c 0
 532 188 466 87 463 84 c 0
 456 77 439 73 418 73 c 0
 393 73 374 78 369 86 c 0
 368 88 354 178 333 316 c 0
 315 440 300 542 299 543 c 0
 299 544 271 439 232 280 c 0
 166 20 166 15 163 12 c 0
 159 8 154 7 146 4 c 0
 114 -5 66 3 66 18 c 0
 66 20 109 197 164 412 c 0
 252 768 261 804 264 806 c 0
 269 811 278 815 293 818 c 0
EndSplineSet
Validated: 33
EndChar

StartChar: N
Encoding: 78 78 45
Width: 546
VWidth: 910
Flags: HW
LayerCount: 2
Fore
SplineSet
293 818 m 0
 303 819 327 819 337 816 c 0
 352 813 359 808 361 802 c 0
 362 800 382 679 406 532 c 0
 430 385 450 266 450 265 c 0
 450 264 481 385 518 534 c 0
 579 779 585 804 588 806 c 0
 595 814 618 820 641 819 c 0
 666 817 685 810 685 801 c 0
 685 799 642 622 587 407 c 0
 499 51 490 15 487 13 c 0
 470 -6 395 -3 390 17 c 0
 389 19 369 140 345 287 c 0
 321 434 301 553 301 554 c 0
 301 555 270 434 233 286 c 0
 172 40 166 15 163 13 c 0
 156 5 133 -1 110 0 c 0
 85 2 66 9 66 18 c 0
 66 20 109 197 164 412 c 0
 252 768 261 804 264 806 c 0
 269 811 278 815 293 818 c 0
EndSplineSet
Validated: 33
EndChar

StartChar: O
Encoding: 79 79 46
Width: 698
VWidth: 910
Flags: HW
LayerCount: 2
Fore
SplineSet
522 824 m 0
 536 825 576 824 590 823 c 0
 663 814 712 785 744 732 c 0
 758 707 768 680 774 646 c 0
 785 589 783 516 768 444 c 0
 740 303 674 173 589 92 c 0
 541 46 489 17 431 4 c 0
 377 -9 318 -9 270 5 c 0
 193 26 146 82 129 174 c 0
 118 230 120 303 135 375 c 0
 163 516 229 646 314 727 c 0
 375 785 442 817 522 824 c 0
572 785 m 0
 565 787 546 787 540 786 c 0
 504 781 464 762 428 732 c 0
 347 665 279 545 244 411 c 0
 214 292 216 181 250 110 c 0
 266 77 288 55 314 41 c 0
 329 35 337 33 353 33 c 0
 362 33 368 33 375 35 c 0
 407 42 443 61 475 87 c 0
 556 154 624 275 659 409 c 0
 692 539 686 659 642 728 c 0
 636 738 625 751 618 757 c 0
 604 770 587 781 572 785 c 0
EndSplineSet
Validated: 33
EndChar

StartChar: P
Encoding: 80 80 47
Width: 530
VWidth: 910
Flags: HW
LayerCount: 2
Fore
SplineSet
279 818 m 0
 287 819 339 818 361 817 c 0
 464 809 543 786 592 749 c 0
 610 735 626 715 635 698 c 0
 643 680 647 667 646 644 c 0
 646 629 646 624 644 613 c 0
 628 535 569 475 471 437 c 0
 418 416 347 400 281 395 c 0
 273 394 266 393 264 393 c 2
 260 392 l 1
 213 204 l 2
 160 -5 166 12 157 7 c 0
 130 -7 66 1 66 18 c 0
 66 19 87 105 113 209 c 0
 146 340 159 398 158 399 c 0
 154 400 147 407 147 410 c 0
 147 413 151 417 155 420 c 2
 162 423 l 1
 167 424 l 1
 212 606 l 1
 258 788 l 1
 253 790 l 1
 236 801 248 813 279 818 c 0
369 777 m 0
 363 778 357 779 357 779 c 1
 357 778 l 2
 356 776 270 433 270 432 c 2
 270 432 277 433 285 434 c 0
 356 444 413 463 459 493 c 0
 505 524 532 565 543 615 c 0
 560 704 499 762 369 777 c 0
EndSplineSet
Validated: 33
EndChar

StartChar: Q
Encoding: 81 81 48
Width: 698
VWidth: 910
Flags: HW
LayerCount: 2
Fore
SplineSet
522 824 m 0
 536 825 576 824 590 823 c 0
 663 814 712 785 744 732 c 0
 758 707 768 680 774 646 c 0
 785 589 783 516 768 444 c 0
 744 327 696 217 631 137 c 0
 625 130 618 122 614 118 c 2
 609 112 l 1
 626 66 l 2
 637 34 643 19 642 17 c 0
 640 6 614 -1 586 0 c 0
 566 1 549 7 544 13 c 0
 542 14 540 22 537 30 c 0
 533 38 532 46 532 46 c 2
 531 46 528 44 523 41 c 0
 469 9 409 -7 344 -5 c 0
 315 -4 294 -2 270 5 c 0
 193 26 146 82 129 174 c 0
 118 230 120 303 135 375 c 0
 163 516 229 646 314 727 c 0
 375 785 442 817 522 824 c 0
572 785 m 0
 565 787 546 787 540 786 c 0
 504 781 464 762 428 732 c 0
 347 665 279 545 244 411 c 0
 214 292 216 181 250 110 c 0
 266 77 288 55 314 41 c 0
 329 35 337 33 353 33 c 0
 362 33 368 33 375 35 c 0
 414 43 458 69 496 106 c 2
 506 117 l 1
 492 155 l 2
 482 183 478 195 478 197 c 0
 479 200 485 204 490 207 c 0
 511 216 551 215 569 206 c 2
 573 204 l 1
 574 206 l 2
 578 211 591 233 598 248 c 0
 635 319 663 404 674 483 c 0
 690 597 675 690 630 745 c 0
 623 754 616 760 606 767 c 0
 597 774 581 782 572 785 c 0
EndSplineSet
Validated: 33
EndChar

StartChar: R
Encoding: 82 82 49
Width: 546
VWidth: 910
Flags: HW
LayerCount: 2
Fore
SplineSet
279 818 m 0
 286 819 340 818 360 817 c 0
 471 810 556 786 606 749 c 0
 629 733 645 713 654 690 c 0
 670 648 662 589 630 542 c 0
 587 477 505 433 387 409 c 0
 377 407 368 405 368 405 c 2
 368 404 400 319 440 213 c 0
 479 107 511 20 511 18 c 0
 511 11 497 4 476 1 c 0
 457 -2 433 1 421 7 c 0
 412 12 416 -2 340 204 c 2
 270 393 l 1
 265 393 l 1
 260 393 l 1
 213 204 l 2
 160 -5 166 12 157 7 c 0
 130 -7 66 1 66 18 c 0
 66 19 87 105 113 209 c 0
 146 340 159 398 158 399 c 0
 154 400 147 407 147 410 c 0
 147 413 151 417 155 420 c 2
 162 423 l 1
 167 424 l 1
 212 606 l 1
 258 788 l 1
 253 790 l 1
 236 801 248 813 279 818 c 0
376 777 m 0
 361 779 357 779 356 778 c 0
 356 777 337 699 313 604 c 0
 278 467 270 431 271 431 c 0
 272 432 275 432 280 432 c 0
 291 434 324 438 339 441 c 0
 466 466 540 526 559 616 c 0
 562 631 563 654 560 667 c 0
 549 714 512 746 445 765 c 0
 428 770 400 775 376 777 c 0
EndSplineSet
Validated: 33
EndChar

StartChar: S
Encoding: 83 83 50
Width: 546
VWidth: 910
Flags: HW
LayerCount: 2
Fore
SplineSet
451 824 m 0
 464 825 487 825 501 824 c 0
 557 819 604 802 631 777 c 0
 656 754 665 723 658 691 c 0
 656 683 653 679 645 675 c 0
 619 663 565 669 557 684 c 0
 556 687 556 688 558 693 c 0
 563 719 557 744 540 762 c 0
 529 772 514 780 498 785 c 0
 491 787 487 786 478 786 c 0
 467 786 466 787 458 784 c 0
 453 782 443 779 438 776 c 0
 379 748 326 678 309 607 c 0
 303 581 303 558 310 535 c 0
 313 526 323 508 330 499 c 0
 346 476 369 454 405 429 c 0
 413 424 425 415 432 410 c 0
 453 395 472 379 487 364 c 0
 513 338 530 312 538 286 c 0
 543 270 542 265 542 247 c 0
 542 232 543 228 541 218 c 0
 530 168 501 115 464 76 c 0
 410 20 345 -7 266 -5 c 0
 177 -2 111 30 95 80 c 0
 90 95 89 113 93 128 c 0
 95 136 98 140 106 144 c 0
 132 156 186 151 194 136 c 0
 195 133 195 132 193 127 c 0
 190 112 191 96 196 82 c 0
 203 64 216 50 237 41 c 0
 255 32 276 30 291 35 c 0
 307 40 330 52 347 66 c 0
 357 74 374 93 383 103 c 0
 398 124 414 149 424 173 c 0
 430 187 437 209 440 221 c 0
 443 235 443 257 441 269 c 0
 431 315 400 353 332 400 c 0
 293 427 278 440 257 460 c 0
 242 475 233 486 225 499 c 0
 216 515 210 529 206 547 c 0
 203 560 203 585 205 599 c 0
 216 650 243 702 282 743 c 0
 328 791 385 819 451 824 c 0
EndSplineSet
Validated: 33
EndChar

StartChar: T
Encoding: 84 84 51
Width: 516
VWidth: 910
Flags: HW
LayerCount: 2
Fore
SplineSet
279 818 m 0
 287 819 628 819 636 818 c 0
 651 816 663 811 668 806 c 0
 677 797 663 787 636 783 c 0
 632 782 602 782 567 782 c 2
 504 782 l 1
 503 778 l 2
 503 776 460 604 408 396 c 0
 356 188 312 16 312 15 c 0
 311 14 310 11 307 10 c 0
 290 -2 244 -4 222 7 c 0
 217 10 212 15 212 18 c 2
 212 18 255 191 308 400 c 0
 360 609 402 780 402 781 c 0
 402 782 382 782 345 782 c 0
 313 782 284 782 280 783 c 0
 254 787 239 796 248 806 c 0
 252 811 265 816 279 818 c 0
EndSplineSet
Validated: 33
EndChar

StartChar: U
Encoding: 85 85 52
Width: 546
VWidth: 910
Flags: HW
LayerCount: 2
Fore
SplineSet
293 818 m 0
 303 820 327 819 337 816 c 0
 352 812 361 807 361 801 c 0
 361 799 325 653 280 476 c 0
 234 295 199 151 198 146 c 0
 193 108 207 72 234 50 c 0
 246 40 261 33 273 32 c 0
 295 30 337 49 367 74 c 0
 392 95 412 124 421 152 c 0
 423 157 460 305 505 482 c 0
 577 772 585 804 588 806 c 0
 595 814 618 820 641 819 c 0
 667 817 685 810 685 801 c 0
 685 797 526 158 522 147 c 0
 514 121 494 91 471 68 c 0
 430 29 377 4 314 -4 c 0
 297 -6 256 -6 240 -4 c 0
 190 3 153 20 128 47 c 0
 103 73 92 109 97 147 c 0
 98 152 134 298 180 481 c 0
 253 773 261 804 264 806 c 0
 269 811 278 815 293 818 c 0
EndSplineSet
Validated: 33
EndChar

StartChar: V
Encoding: 86 86 53
Width: 576
VWidth: 910
Flags: HW
LayerCount: 2
Fore
SplineSet
279 818 m 0
 294 820 316 819 328 815 c 0
 337 812 344 808 346 803 c 0
 346 802 337 643 323 425 c 0
 310 218 299 48 299 48 c 1
 299 48 374 218 465 426 c 0
 575 678 631 804 633 806 c 0
 646 820 695 824 720 812 c 0
 726 809 731 805 731 801 c 0
 731 800 654 623 560 407 c 0
 430 110 388 15 385 12 c 0
 380 7 369 3 354 1 c 0
 350 0 323 0 293 0 c 0
 236 0 229 0 216 5 c 0
 207 8 201 10 198 15 c 0
 197 16 205 151 220 405 c 0
 234 618 245 794 246 798 c 0
 246 802 246 804 248 806 c 0
 252 811 265 816 279 818 c 0
EndSplineSet
Validated: 33
EndChar

StartChar: W
Encoding: 87 87 54
Width: 819
VWidth: 910
Flags: HW
LayerCount: 2
Fore
SplineSet
279 818 m 0
 289 819 305 819 314 818 c 0
 329 815 339 811 344 806 c 0
 346 803 346 803 346 798 c 0
 346 794 333 646 318 467 c 0
 302 288 289 141 289 141 c 2
 289 140 345 269 413 427 c 0
 493 611 538 714 540 715 c 0
 553 729 602 733 626 721 c 0
 634 717 637 713 637 708 c 0
 637 705 629 578 618 424 c 0
 608 270 600 144 600 143 c 0
 600 141 642 242 737 471 c 0
 834 709 874 803 876 806 c 0
 891 822 954 823 971 806 c 0
 974 803 974 803 974 800 c 0
 973 795 652 15 649 12 c 0
 646 9 637 6 630 4 c 0
 617 0 609 0 565 0 c 0
 526 1 522 1 515 3 c 0
 505 5 496 9 493 13 c 0
 490 16 491 16 491 21 c 0
 491 24 497 116 504 228 c 0
 511 339 518 431 518 431 c 2
 517 431 477 337 428 223 c 0
 370 89 337 14 335 13 c 0
 330 8 318 3 303 1 c 0
 289 -1 211 0 203 2 c 0
 189 6 180 10 177 15 c 0
 176 18 180 66 210 407 c 0
 229 621 245 797 246 800 c 0
 246 802 246 804 248 806 c 0
 252 811 265 816 279 818 c 0
EndSplineSet
Validated: 33
EndChar

StartChar: X
Encoding: 88 88 55
Width: 546
VWidth: 910
Flags: HW
LayerCount: 2
Fore
SplineSet
293 818 m 0
 303 819 327 819 337 816 c 0
 351 813 359 808 361 803 c 0
 361 801 372 742 385 672 c 0
 397 601 408 542 408 542 c 2
 408 541 448 601 497 673 c 0
 545 745 586 804 587 806 c 0
 595 814 617 820 641 819 c 0
 667 817 685 810 685 801 c 0
 685 798 662 763 558 609 c 0
 486 503 430 419 430 418 c 0
 430 416 445 326 464 217 c 0
 489 78 500 17 499 16 c 0
 495 6 469 -1 443 0 c 0
 418 2 402 8 399 16 c 0
 399 18 387 82 373 158 c 0
 360 234 349 298 349 298 c 2
 349 299 305 235 252 157 c 0
 199 80 156 14 154 13 c 0
 136 -7 54 -2 56 19 c 0
 56 22 86 65 192 222 c 0
 266 331 327 422 327 422 c 2
 327 423 312 508 294 611 c 0
 276 713 261 798 261 800 c 0
 260 808 272 814 293 818 c 0
EndSplineSet
Validated: 33
EndChar

StartChar: Y
Encoding: 89 89 56
Width: 546
VWidth: 910
Flags: HW
LayerCount: 2
Fore
SplineSet
293 818 m 0
 303 819 327 819 337 816 c 0
 349 813 357 810 360 805 c 0
 361 804 372 745 385 675 c 0
 398 605 409 548 409 548 c 2
 409 547 449 604 497 675 c 0
 545 745 586 804 587 806 c 0
 600 820 649 824 674 812 c 0
 682 808 685 805 685 800 c 0
 685 797 658 758 558 612 c 2
 431 426 l 1
 379 220 l 2
 323 -8 328 12 319 7 c 0
 291 -7 228 1 228 18 c 0
 228 20 251 113 279 225 c 2
 330 429 l 1
 295 613 l 2
 277 715 261 798 261 800 c 0
 260 808 272 814 293 818 c 0
EndSplineSet
Validated: 33
EndChar

StartChar: Z
Encoding: 90 90 57
Width: 516
VWidth: 910
Flags: HW
LayerCount: 2
Fore
SplineSet
279 818 m 0
 287 819 628 819 636 818 c 0
 656 815 671 808 671 801 c 0
 671 799 614 712 419 419 c 0
 280 210 166 38 166 38 c 2
 166 37 225 37 299 37 c 0
 379 37 436 37 441 36 c 0
 467 32 481 23 472 13 c 0
 468 8 456 3 441 1 c 0
 432 0 94 0 85 1 c 0
 65 4 50 11 50 18 c 0
 50 20 107 107 303 400 c 0
 441 609 555 781 555 781 c 2
 555 782 495 782 421 782 c 0
 341 782 285 782 280 783 c 0
 254 787 239 796 248 806 c 0
 252 811 265 816 279 818 c 0
EndSplineSet
Validated: 33
EndChar

StartChar: bracketleft
Encoding: 91 91 58
Width: 243
VWidth: 910
Flags: HW
LayerCount: 2
Fore
SplineSet
270 848 m 0
 278 849 376 849 386 848 c 0
 420 843 432 829 410 819 c 0
 398 814 386 812 357 812 c 2
 335 812 l 1
 234 410 l 1
 133 7 l 1
 151 7 l 2
 181 7 199 4 207 -5 c 0
 214 -12 207 -20 191 -25 c 0
 179 -29 171 -30 119 -30 c 0
 69 -30 61 -30 49 -26 c 0
 37 -23 27 -18 27 -13 c 0
 27 -11 75 180 133 412 c 0
 229 792 238 834 241 836 c 0
 246 841 255 845 270 848 c 0
EndSplineSet
Validated: 33
EndChar

StartChar: backslash
Encoding: 92 92 59
Width: 425
VWidth: 910
Flags: HW
LayerCount: 2
Fore
SplineSet
263 818 m 0
 272 819 296 819 305 817 c 0
 318 813 327 810 330 805 c 0
 331 803 344 654 366 411 c 0
 384 196 400 18 400 18 c 2
 400 15 395 10 390 7 c 0
 368 -4 322 -2 305 10 c 0
 302 11 300 14 299 15 c 0
 298 17 286 166 264 409 c 0
 246 624 230 801 230 801 c 2
 230 804 235 809 240 811 c 0
 245 814 253 816 263 818 c 0
EndSplineSet
Validated: 33
EndChar

StartChar: bracketright
Encoding: 93 93 60
Width: 243
VWidth: 910
Flags: HW
LayerCount: 2
Fore
SplineSet
270 848 m 0
 278 849 376 849 386 848 c 0
 401 846 413 841 418 836 c 0
 420 834 421 833 421 832 c 0
 421 830 373 639 315 407 c 0
 219 27 210 -15 207 -17 c 0
 202 -22 192 -26 177 -29 c 0
 171 -30 158 -30 119 -30 c 0
 91 -30 66 -30 62 -29 c 0
 28 -24 16 -10 38 0 c 0
 50 5 62 7 91 7 c 2
 114 7 l 1
 214 410 l 1
 315 812 l 1
 297 812 l 2
 273 812 259 815 248 820 c 0
 229 829 239 843 270 848 c 0
EndSplineSet
Validated: 33
EndChar

StartChar: asciicircum
Encoding: 94 94 61
Width: 303
VWidth: 910
Flags: HW
LayerCount: 2
Fore
SplineSet
335 818 m 0
 345 819 361 819 370 818 c 0
 385 815 395 811 400 806 c 0
 405 801 454 732 455 729 c 0
 456 724 448 718 438 714 c 0
 418 709 386 708 369 715 c 0
 361 718 358 721 348 734 c 0
 344 740 340 745 340 745 c 2
 340 746 332 739 323 732 c 0
 300 713 294 711 268 710 c 0
 251 710 240 711 230 714 c 0
 223 717 216 721 214 725 c 0
 212 729 212 728 213 731 c 0
 215 735 306 809 312 812 c 0
 317 815 327 817 335 818 c 0
EndSplineSet
Validated: 33
EndChar

StartChar: underscore
Encoding: 95 95 62
Width: 546
VWidth: 910
Flags: HW
LayerCount: 2
Fore
SplineSet
29 -1 m 0
 33 -1 140 0 268 0 c 0
 516 0 507 0 522 -5 c 0
 533 -8 542 -13 542 -18 c 0
 542 -23 533 -30 522 -33 c 0
 507 -38 516 -37 269 -37 c 0
 126 -37 35 -37 30 -36 c 0
 9 -33 -5 -26 -5 -18 c 0
 -5 -11 10 -4 29 -1 c 0
EndSplineSet
Validated: 33
EndChar

StartChar: a
Encoding: 97 97 63
Width: 516
VWidth: 910
Flags: HW
LayerCount: 2
Fore
SplineSet
384 619 m 0
 396 620 431 619 445 618 c 0
 465 615 488 609 502 604 c 0
 507 601 507 601 509 603 c 0
 520 613 557 617 583 611 c 0
 595 608 604 601 604 596 c 0
 604 595 572 464 532 305 c 0
 466 42 460 15 457 13 c 0
 444 -2 394 -5 369 8 c 2
 362 11 l 1
 349 7 l 2
 318 -2 296 -5 262 -5 c 0
 234 -5 220 -3 200 2 c 0
 146 17 119 51 111 117 c 0
 109 130 109 175 111 191 c 0
 121 292 157 414 200 488 c 0
 247 572 303 611 384 619 c 0
420 581 m 0
 411 584 407 583 399 580 c 0
 355 565 311 514 278 438 c 0
 245 365 220 268 212 189 c 0
 210 173 210 132 212 119 c 0
 215 96 220 81 227 66 c 0
 233 51 244 39 256 34 c 0
 261 32 264 31 274 34 c 0
 304 39 342 60 370 87 c 2
 378 95 l 1
 431 309 l 1
 485 522 l 1
 482 527 l 2
 469 553 445 575 420 581 c 0
EndSplineSet
Validated: 33
EndChar

StartChar: b
Encoding: 98 98 64
Width: 516
VWidth: 910
Flags: HW
LayerCount: 2
Fore
SplineSet
293 818 m 0
 303 820 327 819 337 816 c 0
 352 812 361 807 361 801 c 0
 361 799 352 759 340 711 c 2
 318 624 l 2
 319 624 324 624 329 626 c 0
 395 646 470 641 512 615 c 0
 541 596 558 566 563 519 c 0
 565 505 565 459 563 441 c 0
 555 363 530 264 502 193 c 0
 488 159 468 121 451 96 c 0
 410 37 361 5 297 -4 c 0
 255 -9 203 -4 170 10 c 0
 164 13 163 13 162 11 c 0
 158 8 153 6 146 4 c 0
 114 -5 66 3 66 18 c 0
 66 20 109 197 164 412 c 0
 252 768 261 804 264 806 c 0
 269 811 278 815 293 818 c 0
418 600 m 0
 413 602 410 602 402 600 c 0
 378 595 352 581 328 561 c 0
 315 549 297 529 293 522 c 0
 292 520 268 422 238 305 c 2
 185 92 l 1
 188 86 l 2
 201 61 225 40 250 34 c 0
 259 31 263 31 271 35 c 0
 302 45 334 74 362 119 c 0
 373 136 392 174 401 198 c 0
 429 269 453 365 461 442 c 0
 463 459 463 504 461 517 c 0
 457 547 450 569 438 584 c 0
 433 590 423 598 418 600 c 0
EndSplineSet
Validated: 33
EndChar

StartChar: c
Encoding: 99 99 65
Width: 516
VWidth: 910
Flags: HW
LayerCount: 2
Fore
SplineSet
389 613 m 0
 396 614 433 614 443 613 c 0
 489 606 525 589 550 563 c 0
 564 549 574 531 579 514 c 0
 583 504 583 503 579 499 c 0
 564 484 515 481 491 494 c 0
 485 497 482 501 479 509 c 0
 470 538 449 563 424 573 c 0
 414 578 407 578 400 576 c 0
 391 573 375 565 365 557 c 0
 317 522 275 448 245 350 c 0
 218 262 207 176 213 122 c 0
 219 80 235 50 258 39 c 0
 263 37 263 37 269 38 c 0
 278 39 295 45 306 50 c 0
 333 63 360 84 380 109 c 0
 386 117 387 118 392 121 c 0
 417 133 467 130 480 116 c 0
 485 111 484 109 472 94 c 0
 457 77 433 55 414 43 c 0
 386 25 352 11 318 5 c 0
 295 0 263 -1 242 1 c 0
 162 8 123 43 113 119 c 0
 110 134 110 165 111 184 c 0
 115 240 129 310 151 375 c 0
 172 439 199 492 230 531 c 0
 239 543 261 565 272 573 c 0
 293 588 314 598 338 605 c 0
 353 610 364 611 389 613 c 0
EndSplineSet
Validated: 33
EndChar

StartChar: d
Encoding: 100 100 66
Width: 516
VWidth: 910
Flags: HW
LayerCount: 2
Fore
SplineSet
587 818 m 0
 597 820 621 819 631 816 c 0
 646 812 655 807 655 801 c 0
 655 799 612 622 557 407 c 0
 469 51 460 15 457 13 c 0
 444 -2 394 -5 369 8 c 2
 362 11 l 1
 349 7 l 2
 318 -2 296 -5 262 -5 c 0
 234 -5 220 -3 200 2 c 0
 157 14 132 38 119 79 c 0
 113 97 110 116 109 142 c 0
 108 188 116 243 133 312 c 0
 150 380 169 437 191 482 c 0
 203 506 209 517 222 535 c 0
 262 596 311 627 378 637 c 0
 396 639 433 639 451 636 c 0
 468 633 487 629 500 624 c 2
 510 620 l 1
 532 713 l 2
 554 802 555 804 558 807 c 0
 563 812 572 815 587 818 c 0
428 598 m 0
 414 603 406 602 389 593 c 0
 364 580 341 559 320 528 c 0
 309 512 303 500 291 476 c 0
 279 451 270 426 258 393 c 0
 229 303 210 213 210 151 c 0
 210 91 228 48 256 34 c 0
 261 32 264 31 274 34 c 0
 305 39 344 61 371 88 c 2
 379 96 l 1
 431 309 l 1
 485 524 l 1
 483 532 l 2
 478 550 466 570 454 581 c 0
 447 587 436 594 428 598 c 0
EndSplineSet
Validated: 33
EndChar

StartChar: e
Encoding: 101 101 67
Width: 500
VWidth: 910
Flags: HW
LayerCount: 2
Fore
SplineSet
377 619 m 0
 389 620 423 619 435 618 c 0
 487 611 519 590 537 553 c 0
 550 527 555 495 554 451 c 0
 553 419 550 387 542 350 c 0
 536 316 532 304 529 301 c 0
 524 296 515 292 500 289 c 0
 493 288 470 289 360 289 c 2
 228 289 l 1
 228 284 l 2
 216 227 212 202 209 168 c 0
 204 100 219 50 248 35 c 0
 253 32 255 32 260 32 c 0
 270 34 285 38 299 43 c 0
 324 53 351 70 375 92 c 0
 389 106 397 108 424 109 c 0
 442 109 452 109 463 104 c 0
 471 101 478 96 478 91 c 0
 478 88 477 86 468 78 c 0
 433 44 387 18 340 6 c 0
 270 -13 199 -9 159 16 c 0
 149 22 136 36 130 45 c 0
 115 68 109 94 107 134 c 0
 106 184 116 253 139 334 c 0
 158 407 182 462 207 505 c 0
 251 578 301 612 377 619 c 0
407 580 m 0
 401 584 399 584 391 580 c 0
 383 577 379 575 369 568 c 0
 325 540 287 477 256 384 c 0
 250 366 238 329 238 327 c 0
 238 326 435 326 435 327 c 1
 436 327 438 337 441 350 c 0
 454 415 456 466 450 507 c 0
 444 543 428 571 407 580 c 0
EndSplineSet
Validated: 33
EndChar

StartChar: f
Encoding: 102 102 68
Width: 379
VWidth: 910
Flags: HW
LayerCount: 2
Fore
SplineSet
390 824 m 0
 402 825 435 824 447 823 c 0
 490 817 520 800 535 775 c 0
 545 760 548 741 545 722 c 0
 543 714 541 710 534 706 c 0
 510 694 458 698 445 712 c 0
 443 715 443 716 444 722 c 0
 445 735 445 748 442 755 c 0
 438 767 430 778 420 784 c 0
 414 788 411 788 403 784 c 0
 377 774 353 750 344 725 c 0
 342 720 274 451 274 448 c 2
 337 448 l 2
 403 448 409 448 422 443 c 0
 433 440 441 434 441 429 c 0
 441 424 433 418 422 415 c 0
 409 410 403 411 332 411 c 2
 264 411 l 1
 217 221 l 1
 169 31 l 1
 174 29 l 1
 191 18 178 5 147 1 c 0
 138 0 94 0 85 1 c 0
 50 6 39 22 65 32 c 2
 68 34 l 1
 117 225 l 1
 165 417 l 1
 160 419 l 2
 148 426 151 436 166 441 c 0
 171 443 171 444 172 447 c 0
 173 449 189 512 208 588 c 0
 226 664 242 728 244 732 c 0
 249 747 261 763 274 776 c 0
 302 802 343 819 390 824 c 0
EndSplineSet
Validated: 33
EndChar

StartChar: g
Encoding: 103 103 69
Width: 516
VWidth: 910
Flags: HW
LayerCount: 2
Fore
SplineSet
384 619 m 0
 396 620 431 619 445 618 c 0
 465 615 488 609 502 604 c 0
 507 601 507 601 509 603 c 0
 520 613 557 617 583 611 c 0
 595 608 604 601 604 596 c 0
 604 595 565 438 518 247 c 0
 447 -34 430 -103 427 -109 c 0
 420 -125 405 -144 390 -157 c 0
 347 -192 274 -212 202 -210 c 0
 140 -208 94 -191 62 -159 c 0
 50 -147 41 -137 35 -123 c 0
 30 -112 32 -108 43 -103 c 0
 53 -98 61 -97 79 -96 c 0
 97 -96 107 -96 118 -101 c 0
 127 -104 131 -107 136 -117 c 0
 148 -140 165 -157 187 -167 c 0
 198 -172 205 -173 217 -173 c 0
 257 -170 299 -148 319 -119 c 0
 328 -105 329 -100 343 -43 c 0
 350 -15 357 9 356 9 c 2
 356 9 351 7 345 6 c 0
 318 -2 295 -5 262 -5 c 0
 234 -5 220 -3 200 2 c 0
 146 17 119 51 111 117 c 0
 109 130 109 175 111 191 c 0
 121 292 157 414 200 488 c 0
 247 572 303 611 384 619 c 0
420 581 m 0
 411 584 407 583 399 580 c 0
 355 565 311 514 278 438 c 0
 245 365 220 268 212 189 c 0
 210 173 210 132 212 119 c 0
 215 96 220 81 227 66 c 0
 233 51 244 39 256 34 c 0
 261 32 264 31 274 34 c 0
 304 39 342 60 370 87 c 2
 378 95 l 1
 431 309 l 1
 485 522 l 1
 482 527 l 2
 469 553 445 575 420 581 c 0
EndSplineSet
Validated: 33
EndChar

StartChar: h
Encoding: 104 104 70
Width: 516
VWidth: 910
Flags: HW
LayerCount: 2
Fore
SplineSet
293 818 m 0
 303 820 327 819 337 816 c 0
 352 812 361 807 361 801 c 0
 361 799 351 755 337 701 c 0
 324 648 313 604 313 604 c 2
 313 603 319 605 325 607 c 0
 386 627 461 623 511 598 c 0
 557 575 580 532 575 483 c 0
 574 476 558 410 517 245 c 0
 453 -10 460 12 451 7 c 0
 423 -7 360 1 360 18 c 0
 360 20 385 122 416 248 c 0
 457 412 473 478 474 485 c 0
 479 530 456 569 418 581 c 0
 410 584 403 583 390 579 c 0
 372 573 352 561 334 546 c 0
 311 527 292 501 282 475 c 0
 279 469 261 398 222 241 c 0
 159 -9 166 12 157 7 c 0
 129 -7 66 1 66 18 c 0
 66 20 109 197 164 412 c 0
 252 768 261 804 264 806 c 0
 269 811 278 815 293 818 c 0
EndSplineSet
Validated: 33
EndChar

StartChar: i
Encoding: 105 105 71
Width: 273
VWidth: 910
Flags: HW
LayerCount: 2
Fore
SplineSet
299 735 m 0
 308 736 332 735 341 733 c 0
 374 726 374 708 341 701 c 0
 334 699 330 699 316 699 c 0
 301 699 296 699 289 701 c 0
 274 705 265 710 265 717 c 0
 265 724 277 732 299 735 c 0
252 613 m 0
 262 614 308 614 319 613 c 0
 334 610 344 607 349 602 c 0
 353 597 353 595 349 590 c 0
 346 587 336 582 333 582 c 2
 333 582 301 458 264 307 c 2
 195 31 l 1
 199 29 l 1
 216 18 203 5 172 1 c 0
 163 0 119 0 110 1 c 0
 75 6 64 22 90 32 c 2
 94 34 l 1
 163 308 l 2
 200 458 231 582 231 583 c 0
 231 584 230 584 229 585 c 0
 224 586 218 593 220 597 c 0
 222 604 234 609 252 613 c 0
EndSplineSet
Validated: 33
EndChar

StartChar: j
Encoding: 106 106 72
Width: 364
VWidth: 910
Flags: HW
LayerCount: 2
Fore
SplineSet
416 735 m 0
 425 736 449 735 458 733 c 0
 491 726 491 708 458 701 c 0
 451 699 446 699 432 699 c 0
 417 699 413 699 406 701 c 0
 391 705 381 710 381 717 c 0
 381 724 394 732 416 735 c 0
369 613 m 0
 379 614 424 614 435 613 c 0
 450 610 460 607 465 602 c 0
 469 597 469 595 465 590 c 0
 462 587 453 582 450 582 c 2
 450 582 410 427 363 238 c 0
 316 49 276 -110 275 -115 c 0
 265 -144 239 -172 205 -188 c 0
 161 -211 100 -217 50 -204 c 0
 1 -191 -28 -161 -28 -123 c 0
 -28 -113 -27 -101 -24 -98 c 0
 -21 -94 -10 -89 1 -87 c 0
 13 -84 34 -84 46 -86 c 0
 61 -89 71 -94 74 -100 c 0
 76 -102 76 -103 74 -111 c 0
 69 -136 80 -159 100 -170 c 2
 106 -173 l 1
 113 -170 l 2
 138 -161 164 -138 173 -114 c 0
 176 -108 348 579 348 583 c 2
 346 585 l 2
 341 586 335 593 337 597 c 0
 339 604 351 609 369 613 c 0
EndSplineSet
Validated: 33
EndChar

StartChar: k
Encoding: 107 107 73
Width: 485
VWidth: 910
Flags: HW
LayerCount: 2
Fore
SplineSet
293 818 m 0
 303 820 327 819 337 816 c 0
 352 812 361 807 361 801 c 0
 361 799 339 711 313 605 c 2
 265 412 l 1
 265 412 321 456 388 509 c 0
 465 570 512 606 515 608 c 0
 545 621 603 612 603 596 c 0
 603 594 603 593 603 591 c 0
 602 590 525 530 433 457 c 0
 341 384 266 325 266 324 c 1
 267 324 269 324 273 325 c 0
 298 329 327 323 336 313 c 0
 338 311 356 269 399 167 c 0
 432 88 459 21 460 19 c 0
 460 17 460 17 457 14 c 0
 449 5 428 -1 403 0 c 0
 380 1 364 7 360 15 c 0
 359 17 332 82 299 160 c 0
 267 238 239 302 239 302 c 2
 238 303 239 303 238 303 c 1
 238 302 221 237 201 158 c 0
 162 0 166 12 157 7 c 0
 129 -7 66 1 66 18 c 0
 66 20 109 197 164 412 c 0
 252 768 261 804 264 806 c 0
 269 811 278 815 293 818 c 0
EndSplineSet
Validated: 33
EndChar

StartChar: l
Encoding: 108 108 74
Width: 273
VWidth: 910
Flags: HW
LayerCount: 2
Fore
SplineSet
305 818 m 0
 309 818 320 819 333 819 c 0
 350 818 356 818 362 816 c 0
 377 812 387 807 387 801 c 0
 387 799 344 625 291 414 c 2
 195 31 l 1
 199 29 l 1
 216 18 203 5 172 1 c 0
 163 0 119 0 110 1 c 0
 75 6 64 22 90 32 c 2
 94 34 l 1
 188 411 l 1
 283 788 l 1
 279 790 l 2
 272 795 269 801 274 806 c 0
 278 811 290 816 305 818 c 0
EndSplineSet
Validated: 33
EndChar

StartChar: m
Encoding: 109 109 75
Width: 728
VWidth: 910
Flags: HW
LayerCount: 2
Fore
SplineSet
365 619 m 0
 379 620 411 619 425 617 c 0
 456 612 480 604 500 590 c 2
 508 583 l 1
 515 587 l 2
 554 610 601 621 650 620 c 0
 702 618 742 602 767 576 c 0
 787 555 796 529 792 501 c 0
 791 496 764 385 731 254 c 0
 665 -11 672 12 663 7 c 0
 635 -7 572 1 572 18 c 0
 572 20 598 128 631 258 c 0
 664 388 690 497 691 501 c 0
 696 536 681 565 652 579 c 0
 643 584 637 584 625 579 c 0
 606 573 586 559 571 544 c 0
 556 529 545 512 539 493 c 0
 537 488 510 379 477 250 c 0
 412 -10 419 12 410 7 c 0
 382 -7 319 1 319 18 c 0
 319 20 345 128 378 258 c 0
 411 388 437 497 438 501 c 0
 443 536 428 565 400 579 c 0
 396 580 392 582 390 583 c 0
 384 584 360 574 345 563 c 0
 319 546 297 519 286 492 c 0
 284 488 258 383 224 250 c 0
 159 -10 166 12 157 7 c 0
 129 -7 66 1 66 18 c 0
 66 20 98 151 137 310 c 0
 204 579 210 599 213 602 c 0
 226 616 275 619 299 608 c 0
 303 606 303 606 307 607 c 0
 320 612 347 617 365 619 c 0
EndSplineSet
Validated: 33
EndChar

StartChar: n
Encoding: 110 110 76
Width: 516
VWidth: 910
Flags: HW
LayerCount: 2
Fore
SplineSet
384 619 m 0
 397 620 431 619 445 618 c 0
 505 609 548 583 567 542 c 0
 574 526 578 503 575 483 c 0
 574 476 558 410 517 245 c 0
 453 -10 460 12 451 7 c 0
 423 -7 360 1 360 18 c 0
 360 20 385 122 416 248 c 0
 457 412 473 478 474 485 c 0
 479 530 456 569 418 581 c 0
 410 584 403 583 390 579 c 0
 372 573 352 561 334 546 c 0
 311 527 292 501 282 475 c 0
 279 469 261 398 222 241 c 0
 159 -9 166 12 157 7 c 0
 129 -7 66 1 66 18 c 0
 66 20 98 151 137 310 c 0
 204 579 210 599 213 602 c 0
 228 617 284 619 304 604 c 2
 309 602 l 1
 322 606 l 2
 342 612 361 617 384 619 c 0
EndSplineSet
Validated: 33
EndChar

StartChar: o
Encoding: 111 111 77
Width: 576
VWidth: 910
Flags: HW
LayerCount: 2
Fore
SplineSet
418 619 m 0
 427 620 465 619 475 618 c 0
 501 614 520 609 540 599 c 0
 600 569 631 504 628 409 c 0
 624 287 567 152 487 74 c 0
 441 29 391 4 329 -4 c 0
 314 -6 274 -6 259 -4 c 0
 244 -2 225 2 214 5 c 0
 192 12 170 26 155 41 c 0
 119 76 100 133 102 207 c 0
 106 339 174 486 264 559 c 0
 310 596 355 614 418 619 c 0
453 579 m 0
 438 585 421 583 395 569 c 0
 362 553 329 523 301 486 c 0
 262 433 230 362 215 292 c 0
 194 197 203 114 238 67 c 0
 242 62 247 56 250 53 c 0
 263 41 278 34 289 32 c 0
 299 31 315 36 334 45 c 0
 366 61 400 90 429 129 c 0
 468 181 500 252 515 322 c 0
 536 417 527 500 492 547 c 0
 481 562 468 573 453 579 c 0
EndSplineSet
Validated: 33
EndChar

StartChar: p
Encoding: 112 112 78
Width: 500
VWidth: 910
Flags: HW
LayerCount: 2
Fore
SplineSet
380 619 m 0
 392 620 413 620 423 619 c 0
 463 615 494 603 515 584 c 0
 561 540 567 446 532 308 c 0
 493 150 431 49 351 14 c 0
 309 -4 258 -10 207 -1 c 0
 194 1 174 5 167 8 c 0
 165 9 165 10 164 10 c 2
 164 10 153 -35 139 -90 c 0
 118 -172 114 -190 112 -192 c 0
 107 -198 90 -204 70 -205 c 0
 43 -206 18 -199 15 -188 c 0
 14 -187 57 -11 112 207 c 0
 204 573 210 599 213 602 c 0
 226 617 275 619 299 607 c 2
 305 604 l 1
 316 607 l 2
 334 612 363 618 380 619 c 0
407 580 m 0
 402 583 398 583 390 581 c 0
 360 576 322 552 299 527 c 2
 292 520 l 1
 238 306 l 1
 185 91 l 1
 188 86 l 2
 192 78 199 65 205 58 c 0
 218 44 241 32 254 32 c 0
 261 32 277 39 291 48 c 0
 349 87 399 181 431 311 c 0
 457 417 461 499 438 547 c 0
 430 563 420 575 407 580 c 0
EndSplineSet
Validated: 33
EndChar

StartChar: q
Encoding: 113 113 79
Width: 500
VWidth: 910
Flags: HW
LayerCount: 2
Fore
SplineSet
377 619 m 0
 389 620 424 619 437 618 c 0
 452 615 468 612 481 608 c 2
 492 603 l 1
 496 606 l 2
 514 616 557 617 578 607 c 0
 583 604 589 600 589 596 c 0
 589 595 546 418 491 202 c 0
 409 -127 392 -190 390 -192 c 0
 385 -198 369 -204 349 -205 c 0
 322 -206 297 -198 293 -188 c 0
 292 -186 298 -163 317 -90 c 0
 330 -36 340 6 340 7 c 1
 339 7 336 7 331 5 c 0
 321 2 304 -2 290 -4 c 0
 275 -6 237 -6 223 -4 c 0
 186 1 157 13 139 31 c 0
 93 75 88 170 122 307 c 0
 159 458 217 555 293 595 c 0
 316 607 346 616 377 619 c 0
410 581 m 0
 403 584 398 583 391 581 c 0
 354 568 316 529 285 472 c 0
 233 377 195 217 202 130 c 0
 204 104 210 84 217 68 c 0
 225 51 236 40 248 34 c 0
 253 32 254 32 260 33 c 0
 276 35 300 45 319 57 c 0
 332 66 341 74 353 86 c 2
 362 95 l 1
 416 309 l 1
 470 523 l 1
 465 532 l 2
 453 556 432 576 410 581 c 0
EndSplineSet
Validated: 33
EndChar

StartChar: r
Encoding: 114 114 80
Width: 455
VWidth: 910
Flags: HW
LayerCount: 2
Fore
SplineSet
374 619 m 0
 382 620 405 620 415 619 c 0
 487 613 532 582 546 533 c 0
 548 526 548 524 548 510 c 0
 548 493 547 483 543 478 c 0
 538 471 523 465 501 464 c 0
 476 463 456 468 448 477 c 0
 444 480 444 481 446 494 c 0
 450 516 445 539 434 554 c 0
 423 570 403 584 390 583 c 0
 383 582 371 577 360 572 c 0
 325 556 299 527 286 493 c 0
 285 489 258 385 227 259 c 2
 169 31 l 1
 174 29 l 1
 191 18 178 5 147 1 c 0
 138 0 94 0 85 1 c 0
 50 6 39 22 65 32 c 2
 68 34 l 1
 139 316 l 2
 205 580 210 599 213 602 c 0
 226 616 274 619 299 607 c 2
 304 605 l 1
 315 609 l 2
 331 614 353 617 374 619 c 0
EndSplineSet
Validated: 33
EndChar

StartChar: s
Encoding: 115 115 81
Width: 516
VWidth: 910
Flags: HW
LayerCount: 2
Fore
SplineSet
388 619 m 0
 398 620 436 619 446 618 c 0
 493 612 528 597 552 573 c 0
 566 560 573 546 577 530 c 0
 580 520 580 498 578 488 c 0
 575 479 572 475 565 472 c 0
 553 467 540 464 521 465 c 0
 501 466 488 470 481 476 c 0
 476 481 475 483 477 489 c 0
 477 493 478 499 479 504 c 0
 481 538 461 567 428 579 c 0
 413 584 401 583 382 576 c 0
 332 558 289 514 273 463 c 0
 264 436 265 415 276 394 c 0
 288 369 317 345 362 324 c 0
 414 301 439 285 461 265 c 0
 479 247 491 229 496 208 c 0
 499 198 499 176 497 164 c 0
 486 115 452 67 405 36 c 0
 373 14 339 2 297 -4 c 0
 282 -6 243 -6 228 -4 c 0
 178 2 143 16 118 41 c 0
 104 54 97 69 93 85 c 0
 91 91 91 94 91 106 c 0
 91 123 91 133 96 137 c 0
 104 146 124 150 149 149 c 0
 171 148 187 143 192 136 c 0
 194 133 194 133 193 122 c 0
 191 109 191 103 193 92 c 0
 198 67 216 45 241 35 c 0
 256 30 267 31 285 37 c 0
 337 57 379 106 394 161 c 0
 397 170 397 173 397 186 c 0
 397 197 397 201 395 207 c 0
 390 222 380 240 366 252 c 0
 347 269 329 279 282 301 c 0
 239 321 205 345 188 369 c 0
 177 382 172 392 168 407 c 0
 165 418 165 438 168 452 c 0
 183 522 248 585 328 608 c 0
 345 613 370 618 388 619 c 0
EndSplineSet
Validated: 33
EndChar

StartChar: t
Encoding: 116 116 82
Width: 364
VWidth: 910
Flags: HW
LayerCount: 2
Fore
SplineSet
364 818 m 0
 374 820 398 819 408 816 c 0
 423 812 432 807 432 801 c 0
 432 799 423 757 410 707 c 0
 397 657 387 616 387 615 c 2
 387 615 401 614 419 614 c 0
 446 613 452 614 458 612 c 0
 491 605 491 587 458 580 c 0
 451 578 447 578 413 577 c 2
 377 577 l 1
 309 304 l 1
 240 31 l 1
 245 29 l 1
 262 18 249 5 218 1 c 0
 209 0 165 0 156 1 c 0
 121 6 110 22 136 32 c 2
 139 34 l 1
 208 305 l 1
 276 577 l 1
 248 577 l 2
 213 577 202 579 189 584 c 0
 175 590 175 601 189 607 c 0
 203 613 213 614 253 614 c 2
 285 614 l 1
 286 618 l 2
 286 620 296 663 309 713 c 0
 329 795 332 804 335 806 c 0
 340 811 349 815 364 818 c 0
EndSplineSet
Validated: 33
EndChar

StartChar: u
Encoding: 117 117 83
Width: 516
VWidth: 910
Flags: HW
LayerCount: 2
Fore
SplineSet
242 613 m 0
 256 615 275 615 289 611 c 0
 301 608 310 601 310 596 c 0
 310 595 285 492 254 367 c 0
 214 206 197 135 196 129 c 0
 191 84 214 46 251 34 c 0
 259 31 264 31 276 34 c 0
 317 45 358 77 379 116 c 0
 387 131 387 131 447 369 c 0
 500 583 504 599 507 602 c 0
 520 616 568 619 593 607 c 0
 598 604 604 600 604 596 c 0
 604 595 572 464 532 305 c 0
 466 42 460 15 457 13 c 0
 442 -2 385 -5 365 10 c 0
 362 12 363 12 358 11 c 0
 341 5 315 -1 295 -4 c 0
 280 -6 241 -6 226 -4 c 0
 164 5 122 31 103 72 c 0
 96 88 92 111 95 131 c 0
 96 137 113 209 153 370 c 0
 206 584 210 599 213 602 c 0
 218 607 227 610 242 613 c 0
EndSplineSet
Validated: 33
EndChar

StartChar: v
Encoding: 118 118 84
Width: 485
VWidth: 910
Flags: HW
LayerCount: 2
Fore
SplineSet
227 613 m 0
 237 615 260 615 270 612 c 0
 280 610 289 606 292 602 c 0
 295 599 295 598 295 591 c 0
 295 586 289 479 284 352 c 0
 278 225 272 121 272 121 c 1
 272 121 321 229 381 361 c 0
 467 553 489 601 492 603 c 0
 507 616 556 618 579 606 c 0
 584 603 589 599 589 595 c 0
 588 591 328 16 325 13 c 0
 322 9 313 5 303 3 c 0
 295 1 294 1 248 1 c 0
 213 1 200 1 196 2 c 0
 181 5 170 10 167 15 c 0
 166 17 167 49 180 306 c 0
 187 465 194 595 195 597 c 0
 196 604 208 609 227 613 c 0
EndSplineSet
Validated: 33
EndChar

StartChar: w
Encoding: 119 119 85
Width: 758
VWidth: 910
Flags: HW
LayerCount: 2
Fore
SplineSet
227 613 m 0
 237 615 260 615 270 612 c 0
 280 610 289 606 292 602 c 0
 295 599 295 598 295 593 c 0
 295 590 288 484 282 357 c 0
 275 230 269 127 269 127 c 1
 269 127 316 233 374 363 c 0
 431 493 480 601 481 602 c 0
 486 608 502 613 522 614 c 0
 546 615 568 610 576 602 c 0
 578 599 578 599 578 591 c 0
 578 586 571 481 565 355 c 0
 558 229 552 127 552 127 c 2
 553 127 600 233 657 363 c 0
 714 493 763 602 764 603 c 0
 767 606 776 609 783 611 c 0
 806 617 836 614 852 606 c 0
 857 604 862 599 862 596 c 0
 862 595 805 464 734 305 c 0
 639 91 605 15 603 12 c 0
 598 7 587 3 572 1 c 0
 561 -1 487 0 477 1 c 0
 462 4 453 8 448 13 c 0
 445 16 445 16 445 23 c 0
 445 28 448 98 453 180 c 0
 458 263 462 330 462 330 c 2
 461 330 430 259 392 173 c 0
 336 47 321 15 319 12 c 0
 314 7 305 4 290 1 c 0
 277 -1 207 -1 194 1 c 0
 179 4 169 8 164 14 c 0
 161 17 161 17 161 23 c 0
 162 27 169 156 178 312 c 0
 186 468 194 595 195 597 c 0
 196 604 208 609 227 613 c 0
EndSplineSet
Validated: 33
EndChar

StartChar: x
Encoding: 120 120 86
Width: 485
VWidth: 910
Flags: HW
LayerCount: 2
Fore
SplineSet
236 613 m 0
 246 614 269 615 279 612 c 0
 291 609 300 605 303 600 c 0
 304 599 314 558 326 510 c 0
 337 462 347 422 347 421 c 2
 347 421 378 462 415 512 c 0
 460 573 483 603 485 605 c 0
 502 616 549 617 570 607 c 0
 575 604 580 599 580 596 c 0
 580 593 587 602 467 441 c 0
 417 373 375 317 374 316 c 0
 373 315 380 288 409 167 c 0
 428 86 444 19 444 18 c 0
 444 13 435 7 422 4 c 0
 394 -3 358 1 347 13 c 0
 344 15 342 24 320 114 c 2
 297 212 l 1
 224 114 l 2
 184 60 149 15 148 13 c 0
 132 -3 70 -4 53 13 c 0
 51 15 50 16 50 18 c 0
 50 21 68 45 160 169 c 0
 263 308 270 318 269 320 c 0
 269 322 254 385 236 460 c 0
 206 587 203 596 204 599 c 0
 208 605 218 609 236 613 c 0
EndSplineSet
Validated: 33
EndChar

StartChar: y
Encoding: 121 121 87
Width: 485
VWidth: 910
Flags: HW
LayerCount: 2
Fore
SplineSet
227 613 m 0
 237 615 260 615 270 612 c 0
 279 610 288 606 292 603 c 0
 294 600 295 598 295 593 c 0
 296 589 296 542 296 489 c 0
 296 435 297 352 297 305 c 2
 298 219 l 1
 393 410 l 2
 445 514 490 601 491 602 c 0
 494 606 502 609 510 611 c 0
 533 617 563 614 579 606 c 0
 584 604 589 599 589 596 c 0
 589 593 194 -189 191 -192 c 0
 186 -197 177 -201 162 -204 c 0
 130 -209 94 -200 94 -187 c 0
 94 -185 111 -149 146 -82 c 2
 197 20 l 1
 196 309 l 2
 195 535 195 597 196 599 c 0
 199 605 210 609 227 613 c 0
EndSplineSet
Validated: 33
EndChar

StartChar: z
Encoding: 122 122 88
Width: 485
VWidth: 910
Flags: HW
LayerCount: 2
Fore
SplineSet
227 613 m 0
 232 614 269 614 390 614 c 0
 557 614 556 615 570 610 c 0
 581 607 589 600 589 595 c 0
 589 594 585 588 578 579 c 0
 573 572 477 446 368 301 c 2
 167 38 l 1
 289 37 l 2
 398 36 413 36 418 35 c 0
 436 30 444 25 444 18 c 0
 444 11 431 4 410 1 c 0
 401 0 94 0 85 1 c 0
 65 4 50 11 50 18 c 0
 50 21 82 63 260 299 c 2
 471 577 l 1
 350 577 l 2
 220 578 225 577 211 582 c 0
 200 586 193 592 195 597 c 0
 197 604 209 609 227 613 c 0
EndSplineSet
Validated: 33
EndChar

StartChar: braceleft
Encoding: 123 123 89
Width: 243
VWidth: 910
Flags: HW
LayerCount: 2
Fore
SplineSet
345 848 m 0
 358 849 378 849 386 848 c 0
 417 844 429 831 413 821 c 0
 405 816 393 813 375 812 c 0
 362 811 361 811 355 808 c 0
 348 804 337 795 332 786 c 0
 321 767 317 738 318 701 c 0
 319 681 320 664 325 613 c 0
 330 565 330 559 330 532 c 0
 330 511 331 502 330 494 c 0
 324 454 309 429 279 412 c 2
 271 409 l 1
 276 405 l 2
 295 390 299 368 289 335 c 0
 282 307 265 273 230 216 c 0
 224 205 213 188 207 177 c 0
 167 111 149 74 144 46 c 0
 142 33 143 24 147 17 c 0
 152 9 154 7 162 7 c 0
 166 7 172 6 177 6 c 0
 222 -1 220 -24 174 -29 c 0
 165 -30 140 -30 126 -28 c 0
 94 -24 70 -16 56 -3 c 0
 38 15 38 39 53 81 c 0
 58 93 73 125 85 146 c 0
 94 161 101 173 132 224 c 0
 186 313 202 357 190 381 c 0
 185 389 184 391 170 391 c 0
 145 393 127 401 127 411 c 0
 127 420 146 427 173 429 c 0
 188 430 190 431 199 437 c 0
 209 444 217 455 222 471 c 0
 228 489 231 511 230 541 c 0
 229 561 228 572 223 624 c 0
 218 678 218 682 218 710 c 0
 218 730 217 738 218 746 c 0
 224 785 240 810 269 827 c 0
 286 838 315 845 345 848 c 0
EndSplineSet
Validated: 33
EndChar

StartChar: bar
Encoding: 124 124 90
Width: 303
VWidth: 910
Flags: HW
LayerCount: 2
Fore
SplineSet
335 818 m 0
 355 821 379 818 392 811 c 0
 397 809 402 804 402 801 c 0
 402 799 207 18 206 15 c 0
 205 14 203 11 200 10 c 0
 183 -2 138 -4 116 7 c 0
 111 10 106 15 106 17 c 0
 106 18 149 195 204 411 c 0
 300 795 302 803 305 807 c 0
 310 812 321 816 335 818 c 0
EndSplineSet
Validated: 33
EndChar

StartChar: braceright
Encoding: 125 125 91
Width: 243
VWidth: 910
Flags: HW
LayerCount: 2
Fore
SplineSet
259 848 m 0
 268 849 299 850 314 847 c 0
 344 843 367 834 380 821 c 0
 388 813 390 807 393 797 c 0
 398 782 394 758 382 730 c 0
 373 705 359 678 324 618 c 0
 296 569 290 556 279 535 c 0
 254 484 248 455 259 437 c 0
 263 431 266 429 278 429 c 0
 303 427 320 420 320 410 c 0
 320 401 302 393 275 391 c 0
 263 390 262 391 256 388 c 0
 247 383 240 378 235 369 c 0
 226 355 221 339 217 316 c 0
 215 301 215 253 217 227 c 0
 222 158 222 155 222 125 c 0
 222 92 222 84 218 66 c 0
 208 16 180 -12 126 -24 c 0
 111 -28 95 -29 77 -30 c 0
 48 -31 27 -26 19 -17 c 0
 15 -12 15 -10 19 -5 c 0
 25 2 40 6 63 7 c 0
 74 8 75 8 81 11 c 0
 90 16 97 21 102 30 c 0
 111 44 116 60 120 84 c 0
 122 99 122 146 120 173 c 0
 115 241 115 244 115 275 c 0
 115 307 114 314 118 332 c 0
 123 357 133 377 148 392 c 0
 155 398 161 403 171 408 c 2
 177 412 l 1
 174 414 l 2
 169 417 162 426 159 431 c 0
 155 437 153 449 153 457 c 0
 153 478 160 503 178 541 c 0
 189 562 196 575 224 624 c 0
 252 672 258 684 269 706 c 0
 294 756 300 786 289 804 c 0
 285 810 281 812 274 812 c 0
 262 812 245 815 237 820 c 0
 218 829 228 843 259 848 c 0
EndSplineSet
Validated: 33
EndChar

StartChar: asciitilde
Encoding: 126 126 92
Width: 607
VWidth: 910
Flags: HW
LayerCount: 2
Fore
SplineSet
257 417 m 0
 278 419 300 418 320 413 c 0
 358 406 385 389 406 356 c 0
 413 344 421 332 431 309 c 0
 446 279 454 263 465 250 c 0
 471 245 480 237 484 236 c 0
 485 236 488 236 493 239 c 0
 519 253 543 279 552 307 c 0
 556 316 565 321 585 325 c 0
 616 330 654 321 654 308 c 0
 654 302 646 285 636 270 c 0
 628 258 611 240 599 232 c 0
 568 209 533 199 490 197 c 0
 473 197 457 197 441 201 c 0
 396 209 370 230 345 276 c 0
 342 281 335 293 330 304 c 0
 315 335 310 345 299 360 c 0
 292 369 280 379 276 379 c 0
 275 379 272 377 268 375 c 0
 242 362 220 338 209 309 c 0
 207 306 206 301 204 300 c 0
 190 286 141 285 118 296 c 0
 107 301 105 305 109 316 c 0
 121 346 146 374 177 392 c 0
 199 405 228 414 257 417 c 0
EndSplineSet
Validated: 33
EndChar

StartChar: Adieresis
Encoding: 196 196 93
Width: 576
VWidth: 910
Flags: HW
LayerCount: 2
Fore
SplineSet
404 893 m 0
 443 898 486 887 486 872 c 0
 486 860 458 849 426 849 c 0
 393 849 365 860 365 872 c 0
 365 881 381 890 404 893 c 0
565 893 m 0
 604 898 647 887 647 872 c 0
 647 860 619 849 587 849 c 0
 554 849 526 860 526 872 c 0
 526 881 542 890 565 893 c 0
426 818 m 0
 430 818 457 819 488 819 c 0
 532 819 545 819 552 818 c 0
 562 816 569 815 574 811 c 0
 579 809 584 804 584 802 c 0
 584 801 574 625 560 409 c 0
 539 77 535 17 534 14 c 0
 529 7 512 1 491 0 c 0
 467 -1 445 5 438 13 c 0
 435 16 435 17 435 23 c 0
 435 30 457 378 457 386 c 2
 458 391 l 1
 386 391 l 1
 315 391 l 1
 232 203 l 2
 176 74 149 15 147 13 c 0
 134 -1 86 -5 61 7 c 0
 55 10 50 14 50 18 c 0
 50 19 127 196 221 412 c 0
 351 709 393 804 396 807 c 0
 401 812 412 816 426 818 c 0
471 600 m 0
 477 694 482 771 482 771 c 2
 481 771 447 694 406 600 c 2
 331 430 l 1
 395 429 l 2
 430 429 460 429 460 430 c 2
 460 430 466 506 471 600 c 0
EndSplineSet
Validated: 33
EndChar

StartChar: Odieresis
Encoding: 214 214 94
Width: 698
VWidth: 910
Flags: HW
LayerCount: 2
Fore
SplineSet
465 893 m 0
 504 898 547 887 547 872 c 0
 547 860 519 849 487 849 c 0
 454 849 426 860 426 872 c 0
 426 881 442 890 465 893 c 0
626 893 m 0
 665 898 708 887 708 872 c 0
 708 860 680 849 648 849 c 0
 615 849 587 860 587 872 c 0
 587 881 603 890 626 893 c 0
522 824 m 0
 536 825 576 824 590 823 c 0
 663 814 712 785 744 732 c 0
 758 707 768 680 774 646 c 0
 785 589 783 516 768 444 c 0
 740 303 674 173 589 92 c 0
 541 46 489 17 431 4 c 0
 377 -9 318 -9 270 5 c 0
 193 26 146 82 129 174 c 0
 118 230 120 303 135 375 c 0
 163 516 229 646 314 727 c 0
 375 785 442 817 522 824 c 0
572 785 m 0
 565 787 546 787 540 786 c 0
 504 781 464 762 428 732 c 0
 347 665 279 545 244 411 c 0
 214 292 216 181 250 110 c 0
 266 77 288 55 314 41 c 0
 329 35 337 33 353 33 c 0
 362 33 368 33 375 35 c 0
 407 42 443 61 475 87 c 0
 556 154 624 275 659 409 c 0
 692 539 686 659 642 728 c 0
 636 738 625 751 618 757 c 0
 604 770 587 781 572 785 c 0
EndSplineSet
Validated: 33
EndChar

StartChar: Udieresis
Encoding: 220 220 95
Width: 546
VWidth: 910
Flags: HW
LayerCount: 2
Fore
SplineSet
389 893 m 0
 428 898 471 887 471 872 c 0
 471 860 443 849 411 849 c 0
 378 849 350 860 350 872 c 0
 350 881 366 890 389 893 c 0
551 893 m 0
 590 898 633 887 633 872 c 0
 633 860 605 849 573 849 c 0
 540 849 512 860 512 872 c 0
 512 881 528 890 551 893 c 0
293 818 m 0
 303 820 327 819 337 816 c 0
 352 812 361 807 361 801 c 0
 361 799 325 653 280 476 c 0
 234 295 199 151 198 146 c 0
 193 108 207 72 234 50 c 0
 246 40 261 33 273 32 c 0
 295 30 337 49 367 74 c 0
 392 95 412 124 421 152 c 0
 423 157 460 305 505 482 c 0
 577 772 585 804 588 806 c 0
 595 814 618 820 641 819 c 0
 667 817 685 810 685 801 c 0
 685 797 526 158 522 147 c 0
 514 121 494 91 471 68 c 0
 430 29 377 4 314 -4 c 0
 297 -6 256 -6 240 -4 c 0
 190 3 153 20 128 47 c 0
 103 73 92 109 97 147 c 0
 98 152 134 298 180 481 c 0
 253 773 261 804 264 806 c 0
 269 811 278 815 293 818 c 0
EndSplineSet
Validated: 33
EndChar

StartChar: adieresis
Encoding: 228 228 96
Width: 516
VWidth: 910
Flags: HW
LayerCount: 2
Fore
SplineSet
326 689 m 0
 336 690 361 689 370 688 c 0
 397 683 410 673 403 662 c 0
 397 653 376 646 350 644 c 0
 317 643 287 652 283 665 c 0
 280 675 299 685 326 689 c 0
484 688 m 0
 523 693 566 682 566 667 c 0
 566 655 538 644 506 644 c 0
 473 644 445 655 445 667 c 0
 445 676 461 685 484 688 c 0
384 619 m 0
 396 620 431 619 445 618 c 0
 465 615 488 609 502 604 c 0
 507 601 507 601 509 603 c 0
 520 613 557 617 583 611 c 0
 595 608 604 601 604 596 c 0
 604 595 572 464 532 305 c 0
 466 42 460 15 457 13 c 0
 444 -2 394 -5 369 8 c 2
 362 11 l 1
 349 7 l 2
 318 -2 296 -5 262 -5 c 0
 234 -5 220 -3 200 2 c 0
 146 17 119 51 111 117 c 0
 109 130 109 175 111 191 c 0
 121 292 157 414 200 488 c 0
 247 572 303 611 384 619 c 0
420 581 m 0
 411 584 407 583 399 580 c 0
 355 565 311 514 278 438 c 0
 245 365 220 268 212 189 c 0
 210 173 210 132 212 119 c 0
 215 96 220 81 227 66 c 0
 233 51 244 39 256 34 c 0
 261 32 264 31 274 34 c 0
 304 39 342 60 370 87 c 2
 378 95 l 1
 431 309 l 1
 485 522 l 1
 482 527 l 2
 469 553 445 575 420 581 c 0
EndSplineSet
Validated: 33
EndChar

StartChar: odieresis
Encoding: 246 246 97
Width: 576
VWidth: 910
Flags: HW
LayerCount: 2
Fore
SplineSet
356 689 m 0
 366 690 391 689 400 688 c 0
 427 683 440 673 433 662 c 0
 427 653 406 646 380 644 c 0
 347 643 317 652 313 665 c 0
 310 675 329 685 356 689 c 0
514 688 m 0
 553 693 596 682 596 667 c 0
 596 655 568 644 536 644 c 0
 503 644 475 655 475 667 c 0
 475 676 491 685 514 688 c 0
418 619 m 0
 427 620 465 619 475 618 c 0
 501 614 520 609 540 599 c 0
 600 569 631 504 628 409 c 0
 624 287 567 152 487 74 c 0
 441 29 391 4 329 -4 c 0
 314 -6 274 -6 259 -4 c 0
 244 -2 225 2 214 5 c 0
 192 12 170 26 155 41 c 0
 119 76 100 133 102 207 c 0
 106 339 174 486 264 559 c 0
 310 596 355 614 418 619 c 0
453 579 m 0
 438 585 421 583 395 569 c 0
 362 553 329 523 301 486 c 0
 262 433 230 362 215 292 c 0
 194 197 203 114 238 67 c 0
 242 62 247 56 250 53 c 0
 263 41 278 34 289 32 c 0
 299 31 315 36 334 45 c 0
 366 61 400 90 429 129 c 0
 468 181 500 252 515 322 c 0
 536 417 527 500 492 547 c 0
 481 562 468 573 453 579 c 0
EndSplineSet
Validated: 33
EndChar

StartChar: udieresis
Encoding: 252 252 98
Width: 516
VWidth: 910
Flags: HW
LayerCount: 2
Fore
SplineSet
326 689 m 0
 336 690 361 689 370 688 c 0
 397 683 410 673 403 662 c 0
 397 653 376 646 350 644 c 0
 317 643 287 652 283 665 c 0
 280 675 299 685 326 689 c 0
484 688 m 0
 523 693 566 682 566 667 c 0
 566 655 538 644 506 644 c 0
 473 644 445 655 445 667 c 0
 445 676 461 685 484 688 c 0
242 613 m 0
 256 615 275 615 289 611 c 0
 301 608 310 601 310 596 c 0
 310 595 285 492 254 367 c 0
 214 206 197 135 196 129 c 0
 191 84 214 46 251 34 c 0
 259 31 264 31 276 34 c 0
 317 45 358 77 379 116 c 0
 387 131 387 131 447 369 c 0
 500 583 504 599 507 602 c 0
 520 616 568 619 593 607 c 0
 598 604 604 600 604 596 c 0
 604 595 572 464 532 305 c 0
 466 42 460 15 457 13 c 0
 442 -2 385 -5 365 10 c 0
 362 12 363 12 358 11 c 0
 341 5 315 -1 295 -4 c 0
 280 -6 241 -6 226 -4 c 0
 164 5 122 31 103 72 c 0
 96 88 92 111 95 131 c 0
 96 137 113 209 153 370 c 0
 206 584 210 599 213 602 c 0
 218 607 227 610 242 613 c 0
EndSplineSet
Validated: 33
EndChar

StartChar: degree
Encoding: 176 176 99
Width: 425
VWidth: 910
Flags: HW
LayerCount: 2
Fore
SplineSet
390 818 m 0
 401 819 434 818 444 817 c 0
 471 813 495 806 514 793 c 0
 522 787 537 773 542 764 c 0
 555 745 562 724 563 699 c 0
 565 640 535 576 482 534 c 0
 441 500 387 484 331 486 c 0
 306 487 290 490 272 496 c 0
 251 503 236 512 222 526 c 0
 201 547 190 573 188 607 c 0
 186 665 217 729 270 771 c 0
 303 798 344 813 390 818 c 0
419 778 m 0
 413 782 411 782 405 780 c 0
 381 772 355 753 336 730 c 0
 285 669 275 589 312 543 c 0
 318 536 327 530 335 526 c 2
 340 523 l 1
 346 525 l 2
 370 532 397 551 416 575 c 0
 467 636 477 716 440 762 c 0
 435 768 426 775 419 778 c 0
EndSplineSet
Validated: 33
EndChar

StartChar: quotesingle
Encoding: 39 39 100
Width: 121
VWidth: 910
Flags: HW
LayerCount: 2
Fore
SplineSet
244 818 m 0
 264 821 288 818 301 811 c 0
 306 809 311 804 311 801 c 2
 311 801 304 772 296 738 c 0
 281 679 281 676 278 673 c 0
 274 669 267 667 257 664 c 0
 251 662 246 662 230 662 c 0
 210 662 202 662 192 667 c 0
 186 670 180 675 180 678 c 0
 180 680 187 709 196 743 c 0
 211 802 211 804 214 807 c 0
 219 812 230 816 244 818 c 0
EndSplineSet
Validated: 33
EndChar

StartChar: grave
Encoding: 96 96 101
Width: 152
VWidth: 910
Flags: HW
LayerCount: 2
Fore
SplineSet
259 818 m 0
 279 821 304 818 317 811 c 0
 322 809 335 795 340 786 c 0
 351 771 358 751 360 732 c 0
 362 717 361 689 357 677 c 0
 355 672 347 668 334 664 c 0
 323 661 299 660 287 662 c 0
 272 665 261 670 258 675 c 0
 256 678 256 679 258 688 c 0
 263 717 260 742 249 765 c 0
 244 776 240 781 232 791 c 0
 227 796 226 798 226 801 c 0
 226 808 240 815 259 818 c 0
EndSplineSet
Validated: 33
EndChar
